<?xml version="1.0" encoding="UTF-8"?>
<!DOCTYPE svg PUBLIC "-//W3C//DTD SVG 1.1//EN" "http://www.w3.org/Graphics/SVG/1.1/DTD/svg11.dtd">
<!-- Creator: CorelDRAW 2019 (64-Bit) -->
<svg xmlns="http://www.w3.org/2000/svg" xml:space="preserve" width="42.3332mm" height="27.824mm" version="1.1" style="shape-rendering:geometricPrecision; text-rendering:geometricPrecision; image-rendering:optimizeQuality; fill-rule:evenodd; clip-rule:evenodd"
viewBox="0 0 4233.32 2782.4"
 xmlns:xlink="http://www.w3.org/1999/xlink">
 <defs>
  <style type="text/css">
   <![CDATA[
    .fil1 {fill:#AE2A36;fill-rule:nonzero}
    .fil0 {fill:#B8C3CF;fill-rule:nonzero}
   ]]>
  </style>
 </defs>
 <g id="Слой_x0020_1">
  <metadata id="CorelCorpID_0Corel-Layer"/>
  <path class="fil0" d="M411.89 2599.42c-133.15,-137.17 -238.88,-291.26 -310.86,-457.44 -70.18,-162.05 -108.17,-335.1 -108.17,-514.69 0,-451.38 238.55,-859.29 624.21,-1153.89 382.47,-292.16 910.18,-472.88 1492.45,-472.88 582.27,0 1109.99,180.72 1492.46,472.88 385.66,294.6 624.21,702.51 624.21,1153.89 0,183.66 -39.58,360.25 -112.56,525.03 -75.32,170.08 -186.3,327.5 -326.11,467.02l-0.69 -0.69c-3.24,3.11 -6.61,6.11 -10.09,8.97 -36.84,30.27 -84.21,44.86 -144.8,22.9 -30.24,-10.95 -56.1,-36.18 -77.68,-67.82 -24.37,-35.72 -44.11,-80.36 -58.13,-119.53 -11.78,-32.93 -29.59,-115.28 -48.05,-200.69 -22.64,-104.7 -46.35,-214.35 -51.03,-219.31 -4.55,-4.82 -8.22,-1.71 -10.98,3.67 -14.54,28.34 -23.43,74.88 -28.09,101.06 -6.67,37.41 -13.31,74.18 -22.29,118.78 -8.05,40 -16.76,79.05 -26.95,117.82 -34.39,130.76 -83.89,210.59 -137.19,246.54l0.05 0.08c-35.24,23.74 -72.16,29.91 -108.46,20.19 -33.41,-8.94 -64.58,-31.47 -91.52,-66.09 -60.08,-77.17 -103.25,-222.86 -101.49,-414.68 0.32,-36.04 14.43,-210.75 84.14,-394 39.58,-104.08 97.22,-211.87 180.7,-300.95l60.77 57.18c-74.8,79.82 -127.08,178.05 -163.38,273.5 -65.41,171.95 -78.62,332.08 -78.91,364.93 -1.57,171.77 34.25,298.59 84.17,362.72 15.6,20.05 31.65,32.56 47.09,36.69 12.57,3.37 26.21,0.65 40.17,-8.76l0.17 0c37.38,-25.16 74.15,-88.89 102.99,-198.58 10.21,-38.83 18.53,-75.97 25.97,-112.93 6.52,-32.37 13.9,-73.4 21.63,-116.82 5.42,-30.47 15.98,-85.04 36.26,-124.57 32.08,-62.51 78.7,-94.13 145.92,-22.95 20.7,21.91 46.92,143.12 71.94,258.84 17.84,82.49 35.04,162.04 45.12,190.23 12.15,33.94 28.75,71.9 48.32,100.58 12.51,18.33 25.34,32.17 37.17,36.46 27.29,9.89 47.88,3.93 63.44,-8.85 19.87,-16.33 34.9,-43.55 45.72,-68.05 59.64,-134.87 80.21,-294.21 63.33,-449.35 -16.61,-152.77 -69.55,-300.94 -157.23,-416.97l-0.49 -0.82c-81.93,-113.38 -213.49,-212.18 -372.06,-288.3 -211.57,-101.57 -469.83,-162.12 -722.58,-163.06 -118.99,-0.44 -236.58,12.33 -347.24,40.25 60.11,33.57 117.62,73.22 171.76,119.4 91.95,78.41 174.03,175.48 242.44,293.04 81.15,139.46 118.74,303.79 121.38,469.88 2.86,180.53 -35.58,363.43 -104.17,518.56 -18.07,40.88 -44.5,87.38 -83.5,119.43 -43.33,35.61 -99.13,52.75 -170.61,26.85 -35.46,-12.85 -66.12,-42.92 -91.93,-80.76 -29.82,-43.71 -54.06,-98.58 -71.32,-146.81 -14.49,-40.52 -36.64,-142.96 -59.61,-249.18 -28.54,-132.02 -58.44,-270.28 -66.25,-278.55 -13.46,-14.25 -23.36,-6.84 -30.44,6.96 -18.87,36.77 -30.17,95.83 -36.08,129.03 -8.44,47.43 -16.83,93.88 -27.73,147.99 -9.97,49.54 -20.79,98.04 -33.5,146.43 -43.63,165.92 -103.55,267.59 -167.3,312.98 -42.02,29.93 -85.85,37.54 -128.91,24.76 -39.66,-11.78 -76.68,-41.08 -108.8,-86.2 -75.29,-105.73 -129.32,-309.38 -126.82,-583.03 0.78,-84.21 11.95,-165.83 30.67,-243.29 20.64,-85.43 50.55,-166.02 85.84,-239.54 65.27,-135.96 158.88,-242.92 271.39,-324.23 48.93,-35.36 101.41,-65.81 156.64,-91.65 -120.87,-39.03 -248.63,-56.83 -377.52,-56.23 -263.27,1.22 -531.02,79.01 -754.56,209.08 -128.35,74.69 -241.87,166.55 -331.21,270.91 -87.5,115.97 -140.34,263.97 -156.93,416.57 -16.88,155.14 3.69,314.48 63.33,449.34 10.82,24.5 25.85,51.72 45.73,68.05 15.55,12.78 36.15,18.74 63.43,8.85 11.83,-4.28 24.66,-18.12 37.17,-36.45 19.56,-28.69 36.17,-66.64 48.32,-100.59 10.08,-28.19 27.28,-107.73 45.12,-190.22 25.02,-115.73 51.24,-236.94 71.94,-258.85 67.2,-71.18 113.83,-39.57 145.92,22.95 20.29,39.55 30.84,94.11 36.26,124.58 7.73,43.41 15.11,84.43 21.63,116.81 7.44,36.96 15.76,74.11 25.97,112.93 28.82,109.6 65.66,173.33 103.15,198.59 13.97,9.41 27.61,12.12 40.17,8.76 15.45,-4.13 31.5,-16.65 47.1,-36.69 49.92,-64.13 85.74,-190.95 84.17,-362.72 -0.3,-33.43 -11.52,-195.71 -77.85,-368.77 -36.58,-95.44 -89.9,-193.4 -167.28,-272.67l59.79 -58.16c86.51,88.62 145.5,196.54 185.58,301.1 70.75,184.59 82.75,361.3 83.08,397.84 1.75,191.81 -41.42,337.5 -101.49,414.68 -26.95,34.62 -58.12,57.16 -91.53,66.09 -36.3,9.71 -73.22,3.54 -108.46,-20.19 -53.22,-35.85 -102.69,-115.68 -137.13,-246.62 -10.19,-38.76 -18.9,-77.83 -26.95,-117.83 -8.98,-44.6 -15.63,-81.37 -22.29,-118.78 -4.66,-26.18 -13.55,-72.71 -28.09,-101.06 -2.76,-5.38 -6.42,-8.49 -10.98,-3.66 -4.67,4.94 -28.39,114.6 -51.03,219.31 -18.46,85.4 -36.28,167.76 -48.05,200.69 -14.02,39.17 -33.76,83.81 -58.13,119.53 -21.58,31.63 -47.45,56.86 -77.68,67.82 -60.59,21.96 -107.97,7.36 -144.79,-22.91 -11.4,-9.36 -21.49,-20.17 -30.43,-31.69zm3488.86 -241.98c53.92,-75.99 99.7,-155.81 136.43,-238.77 68.32,-154.26 105.37,-319.54 105.37,-491.38 0,-423.96 -225.94,-808.54 -591.21,-1087.56 -368.46,-281.47 -878.19,-455.56 -1441.82,-455.56 -563.62,0 -1073.35,174.09 -1441.81,455.56 -365.27,279.02 -591.21,663.6 -591.21,1087.56 0,168.48 35.47,330.42 100.98,481.69 37.2,85.88 84.13,168.49 139.79,247.09 -21.01,-102.12 -25.56,-209.84 -14.06,-315.53 18.19,-167.33 76.62,-330.19 173.56,-458.48l1.63 -1.96c95.7,-112.22 217.08,-210.7 354.11,-290.43 235.41,-136.98 517.86,-218.9 796.06,-220.19 169.8,-0.79 338.08,28.43 493.35,93.38 143.37,-48.28 300.06,-70.06 458.58,-69.47 265.23,0.99 536.35,64.57 758.53,171.23 170.38,81.8 312.81,189.32 403.18,314.01l0.07 -0.06c96.94,128.29 155.37,291.15 173.56,458.47 11.68,107.38 6.8,216.84 -15.09,320.4zm-1549.96 -957.69c-71.59,-61.05 -149.7,-109.81 -232.24,-147.34 -79.23,29.34 -153.39,67.69 -220.1,115.9 -101.57,73.41 -186.06,169.92 -244.93,292.54 -32.84,68.41 -60.69,143.5 -79.95,223.21 -17.32,71.69 -27.66,146.99 -28.38,224.33 -2.33,255.11 45.18,440.94 111.46,534.03 21.1,29.62 42.99,48.15 64.36,54.49 17.95,5.33 37.3,1.39 57.03,-12.66 48.71,-34.68 96.66,-120.62 134.96,-266.25 12.73,-48.44 23.16,-95.03 32.52,-141.54 8.45,-41.94 17.56,-92.6 27.08,-146.03 6.67,-37.49 19.63,-104.58 44.24,-152.54 36.39,-70.91 89.26,-106.85 165.38,-26.25 23.84,25.24 56.24,175.03 87.16,318.09 22.34,103.31 43.89,202.95 56.68,238.71 15.39,43.02 36.5,91.2 61.51,127.87 16.74,24.53 34.37,43.22 51.42,49.4 38.18,13.83 67.19,5.33 89.25,-12.8 26.37,-21.67 45.95,-57 59.98,-88.72 64.06,-144.89 99.96,-315.47 97.3,-483.6 -2.42,-152.47 -36.57,-302.72 -110.27,-429.37 -63.46,-109.06 -139.45,-198.97 -224.46,-271.47z"/>
  <path class="fil1" d="M2109.52 581.36c64.89,0 123.65,26.3 166.17,68.82 42.53,42.53 68.83,101.29 68.83,166.17 0,64.89 -26.31,123.64 -68.83,166.16 -42.53,42.53 -101.28,68.83 -166.17,68.83 -64.88,0 -123.63,-26.3 -166.16,-68.83 -42.52,-42.52 -68.83,-101.27 -68.83,-166.16 0,-64.88 26.3,-123.64 68.83,-166.17 42.52,-42.52 101.28,-68.82 166.16,-68.82zm107.03 127.97c-27.38,-27.38 -65.23,-44.33 -107.03,-44.33 -41.79,0 -79.64,16.95 -107.02,44.33 -27.38,27.38 -44.33,65.23 -44.33,107.02 0,41.79 16.95,79.63 44.34,107.02 27.38,27.38 65.22,44.32 107.01,44.32 41.8,0 79.64,-16.94 107.02,-44.32 27.39,-27.39 44.33,-65.23 44.33,-107.02 0,-41.79 -16.94,-79.64 -44.32,-107.02z"/>
  <path class="fil0" d="M3488.31 775.62c64.89,0 123.64,26.31 166.16,68.83 42.53,42.53 68.84,101.28 68.84,166.16 0,64.89 -26.31,123.64 -68.84,166.17 -42.52,42.52 -101.27,68.83 -166.16,68.83 -64.88,0 -123.63,-26.3 -166.16,-68.83 -42.52,-42.52 -68.82,-101.28 -68.82,-166.17 0,-64.88 26.3,-123.63 68.82,-166.16 42.53,-42.51 101.28,-68.83 166.16,-68.83zm107.02 127.98c-27.38,-27.39 -65.22,-44.33 -107.02,-44.33 -41.79,0 -79.63,16.94 -107.01,44.32 -27.39,27.39 -44.33,65.23 -44.33,107.02 0,41.8 16.95,79.65 44.33,107.03 27.37,27.38 65.22,44.32 107.01,44.32 41.8,0 79.64,-16.94 107.02,-44.33 27.39,-27.38 44.33,-65.22 44.33,-107.02 0,-41.79 -16.94,-79.63 -44.33,-107.01z"/>
  <path class="fil0" d="M687.28 775.62c64.88,0 123.64,26.31 166.17,68.83 42.52,42.53 68.83,101.28 68.83,166.16 0,64.89 -26.31,123.65 -68.83,166.17 -42.53,42.53 -101.29,68.83 -166.17,68.83 -64.89,0 -123.64,-26.31 -166.16,-68.83 -42.52,-42.53 -68.83,-101.28 -68.83,-166.17 0,-64.88 26.31,-123.63 68.83,-166.16 42.52,-42.52 101.28,-68.83 166.16,-68.83zm107.02 127.98c-27.38,-27.39 -65.23,-44.33 -107.02,-44.33 -41.79,0 -79.63,16.94 -107.01,44.33 -27.39,27.38 -44.33,65.22 -44.33,107.01 0,41.8 16.94,79.64 44.32,107.02 27.39,27.39 65.23,44.33 107.02,44.33 41.79,0 79.65,-16.94 107.02,-44.32 27.39,-27.39 44.34,-65.23 44.34,-107.03 0,-41.79 -16.95,-79.63 -44.34,-107.01z"/>
  <path class="fil1" d="M829.33 1389.16c-19.48,12.26 -45.23,6.41 -57.5,-13.07 -12.27,-19.49 -6.41,-45.24 13.07,-57.51 16.03,-10.11 31.93,-19.75 47.63,-28.89 279.28,-162.52 624.69,-247.53 950.69,-212.44 116.69,12.56 230.9,40.45 338.76,85.54 48.24,-16.23 97.99,-29.46 148.84,-39.86 347.73,-71.14 747.43,-8.86 1055.88,135.85 20.84,9.75 29.84,34.55 20.1,55.39 -9.75,20.84 -34.55,29.84 -55.39,20.09 -293.69,-137.8 -673.77,-197.19 -1003.93,-129.65 -18.17,3.72 -36.19,7.84 -54.03,12.34 150.94,84.28 285.34,207.08 390.98,374.49 8.07,12.79 15.76,25.46 23.03,37.96 81.15,139.46 118.74,303.8 121.38,469.89 2.85,180.52 -35.59,363.43 -104.18,518.55 -18.07,40.88 -44.49,87.38 -83.5,119.44 -43.34,35.6 -99.12,52.75 -170.61,26.84 -35.45,-12.85 -66.12,-42.92 -91.93,-80.76 -29.81,-43.71 -54.05,-98.58 -71.31,-146.81 -14.49,-40.52 -36.64,-142.96 -59.61,-249.18 -28.55,-132.02 -58.45,-270.28 -66.26,-278.55 -13.46,-14.25 -23.36,-6.84 -30.44,6.96 -18.87,36.77 -30.16,95.83 -36.07,129.03 -8.45,47.46 -16.83,93.88 -27.73,147.99 -9.98,49.54 -20.79,98.04 -33.51,146.43 -43.63,165.92 -103.55,267.59 -167.3,312.98 -42.02,29.93 -85.84,37.54 -128.91,24.76 -39.66,-11.78 -76.67,-41.08 -108.79,-86.2 -75.29,-105.73 -129.33,-309.38 -126.82,-583.03 0.77,-84.2 11.95,-165.83 30.66,-243.29 20.65,-85.43 50.56,-166.02 85.85,-239.54 93.82,-195.42 245.71,-330.69 427.79,-415.87 -75.09,-24.25 -152.81,-40.3 -231.78,-48.8 -308.1,-33.17 -635.15,47.53 -900.04,201.66 -15.6,9.08 -30.62,18.18 -45.02,27.26zm1724.53 246.71c-114.46,-181.37 -265.62,-306.16 -435.34,-383.38 -199.82,74.07 -367.69,205.68 -465,408.37 -32.84,68.41 -60.69,143.49 -79.95,223.2 -17.33,71.69 -27.67,146.99 -28.38,224.33 -2.33,255.12 45.18,440.94 111.46,534.03 21.1,29.62 42.99,48.15 64.35,54.49 17.95,5.33 37.31,1.39 57.03,-12.66 48.71,-34.68 96.67,-120.62 134.96,-266.25 12.74,-48.44 23.16,-95.03 32.53,-141.54 8.45,-41.94 17.56,-92.63 27.07,-146.03 6.67,-37.49 19.63,-104.58 44.25,-152.54 36.39,-70.91 89.25,-106.85 165.37,-26.25 23.85,25.24 56.24,175.03 87.17,318.09 22.34,103.31 43.88,202.95 56.68,238.71 15.39,43.02 36.49,91.2 61.51,127.87 16.73,24.53 34.37,43.22 51.41,49.4 38.18,13.84 67.2,5.33 89.25,-12.79 26.37,-21.67 45.96,-57.01 59.98,-88.73 64.06,-144.89 99.97,-315.47 97.31,-483.6 -2.42,-152.47 -36.57,-302.72 -110.27,-429.37 -7.21,-12.4 -14.35,-24.19 -21.39,-35.35z"/>
 </g>
</svg>
