<?xml version="1.0" encoding="UTF-8"?>
<!DOCTYPE svg PUBLIC "-//W3C//DTD SVG 1.1//EN" "http://www.w3.org/Graphics/SVG/1.1/DTD/svg11.dtd">
<!-- Creator: CorelDRAW 2019 (64-Bit) -->
<svg xmlns="http://www.w3.org/2000/svg" xml:space="preserve" width="8.4666mm" height="8.4666mm" version="1.1" style="shape-rendering:geometricPrecision; text-rendering:geometricPrecision; image-rendering:optimizeQuality; fill-rule:evenodd; clip-rule:evenodd"
viewBox="0 0 846.66 846.66"
 xmlns:xlink="http://www.w3.org/1999/xlink">
 <defs>
  <style type="text/css">
   <![CDATA[
    .fil0 {fill:#A6151D;fill-rule:nonzero}
    .fil1 {fill:#ABB8C8;fill-rule:nonzero}
   ]]>
  </style>
 </defs>
 <g id="Слой_x0020_1">
  <metadata id="CorelCorpID_0Corel-Layer"/>
  <g id="_2401651907632">
   <path class="fil0" d="M723.97 99.86c18.17,0 34.68,7.4 46.63,19.35 9.28,9.25 15.81,21.27 18.27,34.7l45.84 0c6.6,0 11.96,5.35 11.96,11.95 0,6.6 -5.36,11.95 -11.96,11.95l-45.84 0c-2.47,13.39 -8.99,25.38 -18.24,34.65 -8.49,8.46 -19.19,14.63 -31.12,17.53l75.38 250.15 10.17 0c5.98,0 10.93,4.38 11.82,10.11 0.87,3.93 1.56,8 2.02,12.1 0.49,4.39 0.76,8.78 0.76,13.08 0,31.92 -12.97,60.85 -33.88,81.77 -20.92,20.98 -49.86,33.94 -81.81,33.94 -31.96,0 -60.89,-12.96 -81.82,-33.88l-0.69 -0.76c-20.5,-20.87 -33.19,-49.51 -33.19,-81.07 0,-4.34 0.26,-8.73 0.76,-13.12l0.04 -0.32c0.48,-4.26 1.22,-8.47 2.16,-12.55 1.26,-5.52 6.19,-9.27 11.63,-9.27l10.15 0 75.39 -250.17c-11.98,-2.9 -22.69,-9.07 -31.11,-17.48l-0.71 -0.79c-8.87,-9.16 -15.13,-20.88 -17.53,-33.92l-74.07 0c-6.6,0 -11.96,-5.35 -11.96,-11.95 0,-6.6 5.36,-11.95 11.96,-11.95l74.07 0c2.46,-13.43 8.97,-25.45 18.24,-34.72 11.94,-11.94 28.46,-19.33 46.68,-19.33zm42.05 67.42l-0.08 -1.42 0.08 -1.42c-0.37,-11.05 -5,-21.04 -12.31,-28.37 -7.56,-7.6 -18.1,-12.3 -29.74,-12.3 -11.6,0 -22.15,4.71 -29.76,12.33 -7.48,7.48 -12.17,17.79 -12.34,29.15l0 0.07 0.02 0.54 -0.02 0.53 0 0.08c0.17,11.1 4.61,21.18 11.71,28.55l0.63 0.59c7.23,7.23 17.13,11.87 28.05,12.3l0.09 -0.01 0.13 -0.02 0.17 -0.02 0.03 0 0.22 -0.02 0.04 -0.01 0.17 -0.01 0.12 0 0.1 -0.02 0.19 0 0.01 0 0.22 -0.01 0.07 0 0.15 0 0.13 0 0.07 0 0.22 0.01 0.01 0 0.19 0 0.11 0.02 0.11 0 0.19 0.01 0.01 0.01 0.2 0.02 0.08 0.01 0.14 0.01 0.16 0.02 0.04 0.01 0.03 0c10.96,-0.45 20.86,-5.04 28.05,-12.25 7.32,-7.3 11.94,-17.29 12.31,-28.38zm-108.08 312.89l132.01 -0.03 -66 -219.04 -66.01 219.07zm157.24 24.79l-0.1 -0.91 -182.22 0 -0.11 0.97c-0.38,3.3 -0.57,6.78 -0.57,10.41 0,25.04 10.03,47.77 26.24,64.32l0.65 0.59c16.6,16.61 39.55,26.89 64.9,26.89 25.34,0 48.3,-10.28 64.9,-26.89 16.6,-16.57 26.88,-39.55 26.88,-64.91 0,-3.66 -0.2,-7.17 -0.57,-10.47z"/>
   <path class="fil0" d="M119.52 99.86c18.22,0 34.74,7.39 46.68,19.33 9.27,9.27 15.78,21.29 18.24,34.72l92.71 0c6.6,0 11.95,5.35 11.95,11.95 0,6.6 -5.35,11.95 -11.95,11.95l-92.71 0c-2.47,13.4 -9,25.41 -18.27,34.68 -8.4,8.44 -19.11,14.6 -31.09,17.5l75.38 250.15 10.17 0c5.98,0 10.93,4.39 11.82,10.12 0.87,3.92 1.56,7.97 2.01,12.05 0.5,4.39 0.76,8.78 0.76,13.12 0,31.92 -12.97,60.85 -33.88,81.77 -20.93,20.98 -49.86,33.94 -81.82,33.94 -31.95,0 -60.89,-12.96 -81.81,-33.88l-0.69 -0.76c-20.51,-20.87 -33.19,-49.51 -33.19,-81.07 0,-4.34 0.26,-8.73 0.76,-13.12l0.04 -0.32c0.47,-4.26 1.22,-8.47 2.15,-12.55 1.26,-5.52 6.2,-9.27 11.63,-9.27l10.17 0 75.39 -250.17c-11.97,-2.9 -22.7,-9.07 -31.12,-17.48l-0.72 -0.79c-8.86,-9.16 -15.12,-20.88 -17.52,-33.92l-42.66 0c-6.6,0 -11.96,-5.35 -11.96,-11.95 0,-6.6 5.36,-11.95 11.96,-11.95l42.66 0c2.45,-13.43 8.97,-25.45 18.24,-34.72 11.94,-11.94 28.46,-19.33 46.67,-19.33zm42.07 67.53l-0.1 -1.53 0.1 -1.53c-0.4,-10.99 -5.03,-20.95 -12.31,-28.23 -7.61,-7.62 -18.16,-12.33 -29.76,-12.33 -11.6,0 -22.14,4.71 -29.76,12.33 -7.48,7.48 -12.17,17.79 -12.33,29.15l0 0.07 0.01 0.54 -0.01 0.53 0 0.08c0.16,11.1 4.61,21.18 11.71,28.55l0.62 0.59c7.25,7.25 17.13,11.85 28.07,12.3l0.09 -0.01 0.13 -0.02 0.17 -0.02 0.03 0 0.22 -0.02 0.04 -0.01 0.17 -0.01 0.12 0 0.1 -0.02 0.19 0 0.01 0 0.22 -0.01 0.07 0 0.15 0 0.13 0 0.07 0 0.22 0.01 0.01 0 0.19 0 0.11 0.02 0.11 0 0.19 0.01 0.01 0.01 0.2 0.02 0.08 0.01 0.14 0.01 0.16 0.02 0.04 0.01 0.03 0c10.92,-0.45 20.8,-5.05 28.05,-12.3 7.29,-7.23 11.91,-17.2 12.31,-28.22zm-108.08 312.78l132.01 -0.03 -66 -219.04 -66.01 219.07zm157.23 24.83l-0.11 -0.95 -182.22 0 -0.11 0.97c-0.37,3.3 -0.56,6.78 -0.56,10.41 0,25.04 10.02,47.77 26.23,64.32l0.65 0.59c16.6,16.61 39.56,26.89 64.9,26.89 25.34,0 48.3,-10.28 64.9,-26.89 16.6,-16.57 26.89,-39.55 26.89,-64.91 0,-3.63 -0.19,-7.11 -0.57,-10.43z"/>
   <path class="fil1" d="M339.28 465.99c0,6.6 -5.35,11.96 -11.95,11.96 -6.6,0 -11.95,-5.36 -11.95,-11.96l0 -78.83 -50.2 -106.94c-0.76,-1.62 -1.13,-3.34 -1.11,-5.04l-0.06 -129.23c0,-6.6 5.36,-11.95 11.96,-11.95 6.6,0 11.95,5.35 11.95,11.95l0 126.67 49.73 105.96c1.03,1.78 1.63,3.83 1.63,6.02l0 81.39z"/>
   <path class="fil1" d="M326 454.04l186.15 0c7.71,0 14.72,3.16 19.76,8.2 5.04,5.04 8.2,12.05 8.2,19.76l0 326.92c0,7.72 -3.16,14.72 -8.2,19.76 -5.04,5.04 -12.05,8.2 -19.76,8.2l-186.15 0c-7.71,0 -14.72,-3.16 -19.76,-8.2 -5.04,-5.04 -8.2,-12.04 -8.2,-19.76l0 -326.92c0,-7.71 3.16,-14.72 8.2,-19.76 5.04,-5.04 12.05,-8.2 19.76,-8.2zm186.15 23.91l-186.15 0c-1.08,0 -2.11,0.47 -2.85,1.2 -0.73,0.73 -1.2,1.76 -1.2,2.85l0 326.92c0,1.09 0.47,2.12 1.2,2.85 0.74,0.73 1.77,1.21 2.85,1.21l186.15 0c1.08,0 2.11,-0.48 2.85,-1.21 0.73,-0.73 1.2,-1.76 1.2,-2.85l0 -326.92c0,-1.09 -0.47,-2.12 -1.2,-2.85 -0.74,-0.73 -1.77,-1.2 -2.85,-1.2z"/>
   <path class="fil1" d="M438.32 321.98c0.17,6.57 -5.02,12.06 -11.59,12.23 -6.57,0.18 -12.06,-5.01 -12.24,-11.58 -0.74,-25.03 4.87,-47.77 17.26,-67.97 6.43,-10.5 14.66,-20.26 24.76,-29.24l-21.67 0c-14.08,0 -26.93,-5.79 -36.22,-15.06 -9.33,-9.35 -15.11,-22.18 -15.11,-36.26 0,-14.14 5.79,-26.98 15.06,-36.25l0.81 -0.73c9.22,-8.85 21.75,-14.33 35.46,-14.33l111.74 0c14.14,0 26.99,5.79 36.26,15.06 9.27,9.27 15.05,22.11 15.05,36.25l0 121.76c0,3.13 -1.2,5.98 -3.18,8.12l-67.95 84.21 0 77.94 -23.91 0 0 -82.11c0,-3.13 1.21,-5.98 3.19,-8.12l67.95 -84.21 0 -117.59c0,-7.51 -3.11,-14.38 -8.07,-19.34 -4.96,-4.96 -11.83,-8.06 -19.34,-8.06l-111.74 0c-7.27,0 -13.91,2.87 -18.83,7.5l-0.53 0.56c-4.96,4.96 -8.06,11.83 -8.06,19.34 0,7.53 3.09,14.4 8.04,19.38 4.97,4.94 11.84,8.03 19.38,8.03l59.29 0c4.17,0.03 8.22,2.23 10.4,6.12 3.23,5.74 1.18,13.02 -4.56,16.24 -21.96,12.34 -37.81,26.81 -47.87,43.21 -9.91,16.15 -14.38,34.53 -13.78,54.9z"/>
   <path class="fil1" d="M395.47 161.9c6.6,0 11.95,5.35 11.95,11.95 0,6.6 -5.35,11.96 -11.95,11.96l-91.6 0c-10.98,0 -20.97,-4.5 -28.16,-11.7 -7.2,-7.19 -11.7,-17.18 -11.7,-28.16l0 -96.3c0,-10.99 4.5,-20.98 11.7,-28.17 7.19,-7.2 17.18,-11.7 28.16,-11.7l201.38 0c10.98,0 20.97,4.5 28.16,11.7l0.79 0.86c6.73,7.15 10.91,16.79 10.91,27.31l0 85.09c0,6.6 -5.36,11.96 -11.96,11.96 -6.59,0 -11.95,-5.36 -11.95,-11.96l0 -85.09c0,-4.13 -1.6,-7.94 -4.19,-10.79l-0.51 -0.47c-2.89,-2.89 -6.88,-4.7 -11.25,-4.7l-201.38 0c-4.36,0 -8.36,1.81 -11.25,4.7 -2.88,2.89 -4.7,6.9 -4.7,11.26l0 96.3c0,4.36 1.82,8.36 4.7,11.25 2.89,2.89 6.89,4.7 11.25,4.7l91.6 0z"/>
  </g>
 </g>
</svg>
