<?xml version="1.0" encoding="utf-8"?><svg xmlns="http://www.w3.org/2000/svg" xmlns:xlink="http://www.w3.org/1999/xlink"><symbol viewBox="0 0 16 16" id="check" xmlns="http://www.w3.org/2000/svg"><path d="M13.795 1L5.79 12.527 2.036 8.503 1 9.773 5.917 15 15 2.112 13.795 1z"/></symbol><symbol viewBox="0 0 97.16 97.16" id="clock" xmlns="http://www.w3.org/2000/svg"><path d="M48.58 0C21.793 0 0 21.793 0 48.58s21.793 48.58 48.58 48.58 48.58-21.793 48.58-48.58S75.367 0 48.58 0zm0 86.823c-21.087 0-38.244-17.155-38.244-38.243S27.493 10.337 48.58 10.337 86.824 27.492 86.824 48.58 69.667 86.823 48.58 86.823z"/><path d="M73.898 47.08H52.066V20.83a4 4 0 00-8 0v30.25a4 4 0 004 4h25.832a4 4 0 000-8z"/></symbol><symbol viewBox="0 0 7 10" id="dev-hleb-kroshki" xmlns="http://www.w3.org/2000/svg"><path d="M1.268 3.258l1.375 1.937-1.375 1.75m2.92-3.687l1.313 1.844-1.313 1.843"/></symbol><symbol viewBox="0 0 460.298 460.297" class="dhovered-paths" id="home" xmlns="http://www.w3.org/2000/svg"><path d="M230.149 120.939L65.986 256.274c0 .191-.048.472-.144.855-.094.38-.144.656-.144.852v137.041c0 4.948 1.809 9.236 5.426 12.847 3.616 3.613 7.898 5.431 12.847 5.431h109.63V303.664h73.097v109.64h109.629c4.948 0 9.236-1.814 12.847-5.435 3.617-3.607 5.432-7.898 5.432-12.847V257.981c0-.76-.104-1.334-.288-1.707L230.149 120.939z" data-original="#000000" class="dhovered-path dactive-path" data-old_color="#000000"/><path d="M457.122 225.438L394.6 173.476V56.989c0-2.663-.856-4.853-2.574-6.567-1.704-1.712-3.894-2.568-6.563-2.568h-54.816c-2.666 0-4.855.856-6.57 2.568-1.711 1.714-2.566 3.905-2.566 6.567v55.673l-69.662-58.245c-6.084-4.949-13.318-7.423-21.694-7.423-8.375 0-15.608 2.474-21.698 7.423L3.172 225.438c-1.903 1.52-2.946 3.566-3.14 6.136-.193 2.568.472 4.811 1.997 6.713l17.701 21.128c1.525 1.712 3.521 2.759 5.996 3.142 2.285.192 4.57-.476 6.855-1.998L230.149 95.817l197.57 164.741c1.526 1.328 3.521 1.991 5.996 1.991h.858c2.471-.376 4.463-1.43 5.996-3.138l17.703-21.125c1.522-1.906 2.189-4.145 1.991-6.716-.195-2.563-1.242-4.609-3.141-6.132z" data-original="#000000" class="dhovered-path dactive-path" data-old_color="#000000"/></symbol><symbol viewBox="0 0 4233.32 2782.4" id="logo" xmlns="http://www.w3.org/2000/svg"><defs><style>.efil0,.efil1{fill-rule:nonzero}.efil1{fill:#ae2a36}.efil0{fill:#b8c3cf}</style></defs><g id="eСлой_x0020_1"><path class="efil0" d="M411.89 2599.42c-133.15-137.17-238.88-291.26-310.86-457.44-70.18-162.05-108.17-335.1-108.17-514.69 0-451.38 238.55-859.29 624.21-1153.89C999.54 181.24 1527.25.52 2109.52.52c582.27 0 1109.99 180.72 1492.46 472.88 385.66 294.6 624.21 702.51 624.21 1153.89 0 183.66-39.58 360.25-112.56 525.03-75.32 170.08-186.3 327.5-326.11 467.02l-.69-.69c-3.24 3.11-6.61 6.11-10.09 8.97-36.84 30.27-84.21 44.86-144.8 22.9-30.24-10.95-56.1-36.18-77.68-67.82-24.37-35.72-44.11-80.36-58.13-119.53-11.78-32.93-29.59-115.28-48.05-200.69-22.64-104.7-46.35-214.35-51.03-219.31-4.55-4.82-8.22-1.71-10.98 3.67-14.54 28.34-23.43 74.88-28.09 101.06-6.67 37.41-13.31 74.18-22.29 118.78-8.05 40-16.76 79.05-26.95 117.82-34.39 130.76-83.89 210.59-137.19 246.54l.05.08c-35.24 23.74-72.16 29.91-108.46 20.19-33.41-8.94-64.58-31.47-91.52-66.09-60.08-77.17-103.25-222.86-101.49-414.68.32-36.04 14.43-210.75 84.14-394 39.58-104.08 97.22-211.87 180.7-300.95l60.77 57.18c-74.8 79.82-127.08 178.05-163.38 273.5-65.41 171.95-78.62 332.08-78.91 364.93-1.57 171.77 34.25 298.59 84.17 362.72 15.6 20.05 31.65 32.56 47.09 36.69 12.57 3.37 26.21.65 40.17-8.76h.17c37.38-25.16 74.15-88.89 102.99-198.58 10.21-38.83 18.53-75.97 25.97-112.93 6.52-32.37 13.9-73.4 21.63-116.82 5.42-30.47 15.98-85.04 36.26-124.57 32.08-62.51 78.7-94.13 145.92-22.95 20.7 21.91 46.92 143.12 71.94 258.84 17.84 82.49 35.04 162.04 45.12 190.23 12.15 33.94 28.75 71.9 48.32 100.58 12.51 18.33 25.34 32.17 37.17 36.46 27.29 9.89 47.88 3.93 63.44-8.85 19.87-16.33 34.9-43.55 45.72-68.05 59.64-134.87 80.21-294.21 63.33-449.35-16.61-152.77-69.55-300.94-157.23-416.97l-.49-.82c-81.93-113.38-213.49-212.18-372.06-288.3-211.57-101.57-469.83-162.12-722.58-163.06-118.99-.44-236.58 12.33-347.24 40.25 60.11 33.57 117.62 73.22 171.76 119.4 91.95 78.41 174.03 175.48 242.44 293.04 81.15 139.46 118.74 303.79 121.38 469.88 2.86 180.53-35.58 363.43-104.17 518.56-18.07 40.88-44.5 87.38-83.5 119.43-43.33 35.61-99.13 52.75-170.61 26.85-35.46-12.85-66.12-42.92-91.93-80.76-29.82-43.71-54.06-98.58-71.32-146.81-14.49-40.52-36.64-142.96-59.61-249.18-28.54-132.02-58.44-270.28-66.25-278.55-13.46-14.25-23.36-6.84-30.44 6.96-18.87 36.77-30.17 95.83-36.08 129.03-8.44 47.43-16.83 93.88-27.73 147.99-9.97 49.54-20.79 98.04-33.5 146.43-43.63 165.92-103.55 267.59-167.3 312.98-42.02 29.93-85.85 37.54-128.91 24.76-39.66-11.78-76.68-41.08-108.8-86.2-75.29-105.73-129.32-309.38-126.82-583.03.78-84.21 11.95-165.83 30.67-243.29 20.64-85.43 50.55-166.02 85.84-239.54 65.27-135.96 158.88-242.92 271.39-324.23 48.93-35.36 101.41-65.81 156.64-91.65-120.87-39.03-248.63-56.83-377.52-56.23-263.27 1.22-531.02 79.01-754.56 209.08-128.35 74.69-241.87 166.55-331.21 270.91-87.5 115.97-140.34 263.97-156.93 416.57-16.88 155.14 3.69 314.48 63.33 449.34 10.82 24.5 25.85 51.72 45.73 68.05 15.55 12.78 36.15 18.74 63.43 8.85 11.83-4.28 24.66-18.12 37.17-36.45 19.56-28.69 36.17-66.64 48.32-100.59 10.08-28.19 27.28-107.73 45.12-190.22 25.02-115.73 51.24-236.94 71.94-258.85 67.2-71.18 113.83-39.57 145.92 22.95 20.29 39.55 30.84 94.11 36.26 124.58 7.73 43.41 15.11 84.43 21.63 116.81 7.44 36.96 15.76 74.11 25.97 112.93 28.82 109.6 65.66 173.33 103.15 198.59 13.97 9.41 27.61 12.12 40.17 8.76 15.45-4.13 31.5-16.65 47.1-36.69 49.92-64.13 85.74-190.95 84.17-362.72-.3-33.43-11.52-195.71-77.85-368.77-36.58-95.44-89.9-193.4-167.28-272.67l59.79-58.16c86.51 88.62 145.5 196.54 185.58 301.1 70.75 184.59 82.75 361.3 83.08 397.84 1.75 191.81-41.42 337.5-101.49 414.68-26.95 34.62-58.12 57.16-91.53 66.09-36.3 9.71-73.22 3.54-108.46-20.19-53.22-35.85-102.69-115.68-137.13-246.62-10.19-38.76-18.9-77.83-26.95-117.83-8.98-44.6-15.63-81.37-22.29-118.78-4.66-26.18-13.55-72.71-28.09-101.06-2.76-5.38-6.42-8.49-10.98-3.66-4.67 4.94-28.39 114.6-51.03 219.31-18.46 85.4-36.28 167.76-48.05 200.69-14.02 39.17-33.76 83.81-58.13 119.53-21.58 31.63-47.45 56.86-77.68 67.82-60.59 21.96-107.97 7.36-144.79-22.91-11.4-9.36-21.49-20.17-30.43-31.69zm3488.86-241.98c53.92-75.99 99.7-155.81 136.43-238.77 68.32-154.26 105.37-319.54 105.37-491.38 0-423.96-225.94-808.54-591.21-1087.56-368.46-281.47-878.19-455.56-1441.82-455.56-563.62 0-1073.35 174.09-1441.81 455.56C302.44 818.75 76.5 1203.33 76.5 1627.29c0 168.48 35.47 330.42 100.98 481.69 37.2 85.88 84.13 168.49 139.79 247.09-21.01-102.12-25.56-209.84-14.06-315.53 18.19-167.33 76.62-330.19 173.56-458.48l1.63-1.96c95.7-112.22 217.08-210.7 354.11-290.43 235.41-136.98 517.86-218.9 796.06-220.19 169.8-.79 338.08 28.43 493.35 93.38 143.37-48.28 300.06-70.06 458.58-69.47 265.23.99 536.35 64.57 758.53 171.23 170.38 81.8 312.81 189.32 403.18 314.01l.07-.06c96.94 128.29 155.37 291.15 173.56 458.47 11.68 107.38 6.8 216.84-15.09 320.4zm-1549.96-957.69c-71.59-61.05-149.7-109.81-232.24-147.34-79.23 29.34-153.39 67.69-220.1 115.9-101.57 73.41-186.06 169.92-244.93 292.54-32.84 68.41-60.69 143.5-79.95 223.21-17.32 71.69-27.66 146.99-28.38 224.33-2.33 255.11 45.18 440.94 111.46 534.03 21.1 29.62 42.99 48.15 64.36 54.49 17.95 5.33 37.3 1.39 57.03-12.66 48.71-34.68 96.66-120.62 134.96-266.25 12.73-48.44 23.16-95.03 32.52-141.54 8.45-41.94 17.56-92.6 27.08-146.03 6.67-37.49 19.63-104.58 44.24-152.54 36.39-70.91 89.26-106.85 165.38-26.25 23.84 25.24 56.24 175.03 87.16 318.09 22.34 103.31 43.89 202.95 56.68 238.71 15.39 43.02 36.5 91.2 61.51 127.87 16.74 24.53 34.37 43.22 51.42 49.4 38.18 13.83 67.19 5.33 89.25-12.8 26.37-21.67 45.95-57 59.98-88.72 64.06-144.89 99.96-315.47 97.3-483.6-2.42-152.47-36.57-302.72-110.27-429.37-63.46-109.06-139.45-198.97-224.46-271.47z"/><path class="efil1" d="M2109.52 581.36c64.89 0 123.65 26.3 166.17 68.82 42.53 42.53 68.83 101.29 68.83 166.17 0 64.89-26.31 123.64-68.83 166.16-42.53 42.53-101.28 68.83-166.17 68.83-64.88 0-123.63-26.3-166.16-68.83-42.52-42.52-68.83-101.27-68.83-166.16 0-64.88 26.3-123.64 68.83-166.17 42.52-42.52 101.28-68.82 166.16-68.82zm107.03 127.97c-27.38-27.38-65.23-44.33-107.03-44.33-41.79 0-79.64 16.95-107.02 44.33-27.38 27.38-44.33 65.23-44.33 107.02 0 41.79 16.95 79.63 44.34 107.02 27.38 27.38 65.22 44.32 107.01 44.32 41.8 0 79.64-16.94 107.02-44.32 27.39-27.39 44.33-65.23 44.33-107.02 0-41.79-16.94-79.64-44.32-107.02z"/><path class="efil0" d="M3488.31 775.62c64.89 0 123.64 26.31 166.16 68.83 42.53 42.53 68.84 101.28 68.84 166.16 0 64.89-26.31 123.64-68.84 166.17-42.52 42.52-101.27 68.83-166.16 68.83-64.88 0-123.63-26.3-166.16-68.83-42.52-42.52-68.82-101.28-68.82-166.17 0-64.88 26.3-123.63 68.82-166.16 42.53-42.51 101.28-68.83 166.16-68.83zm107.02 127.98c-27.38-27.39-65.22-44.33-107.02-44.33-41.79 0-79.63 16.94-107.01 44.32-27.39 27.39-44.33 65.23-44.33 107.02 0 41.8 16.95 79.65 44.33 107.03 27.37 27.38 65.22 44.32 107.01 44.32 41.8 0 79.64-16.94 107.02-44.33 27.39-27.38 44.33-65.22 44.33-107.02 0-41.79-16.94-79.63-44.33-107.01zM687.28 775.62c64.88 0 123.64 26.31 166.17 68.83 42.52 42.53 68.83 101.28 68.83 166.16 0 64.89-26.31 123.65-68.83 166.17-42.53 42.53-101.29 68.83-166.17 68.83-64.89 0-123.64-26.31-166.16-68.83-42.52-42.53-68.83-101.28-68.83-166.17 0-64.88 26.31-123.63 68.83-166.16 42.52-42.52 101.28-68.83 166.16-68.83zM794.3 903.6c-27.38-27.39-65.23-44.33-107.02-44.33-41.79 0-79.63 16.94-107.01 44.33-27.39 27.38-44.33 65.22-44.33 107.01 0 41.8 16.94 79.64 44.32 107.02 27.39 27.39 65.23 44.33 107.02 44.33 41.79 0 79.65-16.94 107.02-44.32 27.39-27.39 44.34-65.23 44.34-107.03 0-41.79-16.95-79.63-44.34-107.01z"/><path class="efil1" d="M829.33 1389.16c-19.48 12.26-45.23 6.41-57.5-13.07-12.27-19.49-6.41-45.24 13.07-57.51 16.03-10.11 31.93-19.75 47.63-28.89 279.28-162.52 624.69-247.53 950.69-212.44 116.69 12.56 230.9 40.45 338.76 85.54 48.24-16.23 97.99-29.46 148.84-39.86 347.73-71.14 747.43-8.86 1055.88 135.85 20.84 9.75 29.84 34.55 20.1 55.39-9.75 20.84-34.55 29.84-55.39 20.09-293.69-137.8-673.77-197.19-1003.93-129.65-18.17 3.72-36.19 7.84-54.03 12.34 150.94 84.28 285.34 207.08 390.98 374.49 8.07 12.79 15.76 25.46 23.03 37.96 81.15 139.46 118.74 303.8 121.38 469.89 2.85 180.52-35.59 363.43-104.18 518.55-18.07 40.88-44.49 87.38-83.5 119.44-43.34 35.6-99.12 52.75-170.61 26.84-35.45-12.85-66.12-42.92-91.93-80.76-29.81-43.71-54.05-98.58-71.31-146.81-14.49-40.52-36.64-142.96-59.61-249.18-28.55-132.02-58.45-270.28-66.26-278.55-13.46-14.25-23.36-6.84-30.44 6.96-18.87 36.77-30.16 95.83-36.07 129.03-8.45 47.46-16.83 93.88-27.73 147.99-9.98 49.54-20.79 98.04-33.51 146.43-43.63 165.92-103.55 267.59-167.3 312.98-42.02 29.93-85.84 37.54-128.91 24.76-39.66-11.78-76.67-41.08-108.79-86.2-75.29-105.73-129.33-309.38-126.82-583.03.77-84.2 11.95-165.83 30.66-243.29 20.65-85.43 50.56-166.02 85.85-239.54 93.82-195.42 245.71-330.69 427.79-415.87-75.09-24.25-152.81-40.3-231.78-48.8-308.1-33.17-635.15 47.53-900.04 201.66-15.6 9.08-30.62 18.18-45.02 27.26zm1724.53 246.71c-114.46-181.37-265.62-306.16-435.34-383.38-199.82 74.07-367.69 205.68-465 408.37-32.84 68.41-60.69 143.49-79.95 223.2-17.33 71.69-27.67 146.99-28.38 224.33-2.33 255.12 45.18 440.94 111.46 534.03 21.1 29.62 42.99 48.15 64.35 54.49 17.95 5.33 37.31 1.39 57.03-12.66 48.71-34.68 96.67-120.62 134.96-266.25 12.74-48.44 23.16-95.03 32.53-141.54 8.45-41.94 17.56-92.63 27.07-146.03 6.67-37.49 19.63-104.58 44.25-152.54 36.39-70.91 89.25-106.85 165.37-26.25 23.85 25.24 56.24 175.03 87.17 318.09 22.34 103.31 43.88 202.95 56.68 238.71 15.39 43.02 36.49 91.2 61.51 127.87 16.73 24.53 34.37 43.22 51.41 49.4 38.18 13.84 67.2 5.33 89.25-12.79 26.37-21.67 45.96-57.01 59.98-88.73 64.06-144.89 99.97-315.47 97.31-483.6-2.42-152.47-36.57-302.72-110.27-429.37a1145.73 1145.73 0 00-21.39-35.35z"/></g></symbol><symbol viewBox="0 0 512 512" id="minus" xmlns="http://www.w3.org/2000/svg"><path d="M477.675 127.498c-22.893-39.22-53.945-70.272-93.166-93.164C345.28 11.443 302.458 0 256.008 0c-46.445 0-89.281 11.443-128.502 34.333-39.223 22.889-70.276 53.941-93.169 93.165C11.443 166.723 0 209.559 0 256c0 46.445 11.446 89.273 34.334 128.5 22.892 39.22 53.944 70.272 93.167 93.167C166.727 500.556 209.559 512 256.003 512s89.281-11.444 128.504-34.333c39.222-22.887 70.273-53.947 93.164-93.167 22.887-39.225 34.328-82.059 34.328-128.5.001-46.446-11.442-89.283-34.324-128.502zm-72.333 149.836c0 5.776-2.114 10.783-6.337 14.999-4.22 4.22-9.222 6.337-15 6.337H128.001c-5.776 0-10.775-2.116-14.999-6.337-4.222-4.215-6.333-9.222-6.333-14.999v-42.67c0-5.777 2.112-10.777 6.333-15 4.223-4.223 9.221-6.335 14.999-6.335h256.004c5.777 0 10.779 2.112 15 6.335 4.223 4.221 6.337 9.221 6.337 15v42.67z"/><path d="M405.342 277.334c0 5.776-2.114 10.783-6.337 14.999-4.22 4.22-9.222 6.337-15 6.337H128.001c-5.776 0-10.775-2.116-14.999-6.337-4.222-4.215-6.333-9.222-6.333-14.999v-42.67c0-5.777 2.112-10.777 6.333-15 4.223-4.223 9.221-6.335 14.999-6.335h256.004c5.777 0 10.779 2.112 15 6.335 4.223 4.221 6.337 9.221 6.337 15v42.67z"/></symbol><symbol viewBox="287.64 410.945 20 20" id="phone" xmlns="http://www.w3.org/2000/svg"><path d="M306.037 424.073c-1.225 0-2.427-.191-3.566-.567-.558-.19-1.244-.017-1.585.334l-2.249 1.697c-2.608-1.392-4.214-2.998-5.587-5.586l1.647-2.19a1.617 1.617 0 00.398-1.638 11.374 11.374 0 01-.57-3.572c0-.885-.72-1.605-1.605-1.605h-3.673c-.885 0-1.604.72-1.604 1.605 0 10.144 8.251 18.395 18.395 18.395.885 0 1.604-.72 1.604-1.604v-3.662a1.609 1.609 0 00-1.605-1.607z"/></symbol><symbol viewBox="0 0 512 512" id="plus" xmlns="http://www.w3.org/2000/svg"><path d="M477.675 127.498c-22.893-39.22-53.945-70.272-93.166-93.164C345.28 11.443 302.458 0 256.008 0c-46.445 0-89.281 11.443-128.502 34.333-39.223 22.889-70.276 53.941-93.169 93.165C11.443 166.723 0 209.559 0 256c0 46.445 11.446 89.273 34.334 128.5 22.892 39.22 53.944 70.272 93.167 93.167C166.727 500.556 209.559 512 256.003 512s89.281-11.444 128.504-34.333c39.222-22.887 70.273-53.947 93.164-93.167 22.887-39.225 34.328-82.059 34.328-128.5.001-46.446-11.442-89.283-34.324-128.502zm-72.333 149.836c0 5.776-2.114 10.783-6.337 14.999-4.227 4.22-9.226 6.337-15 6.337h-85.336v85.328c0 5.776-2.116 10.778-6.337 15.007-4.219 4.219-9.22 6.33-14.999 6.33h-42.665c-5.777 0-10.777-2.111-14.999-6.33-4.224-4.228-6.336-9.229-6.336-15.007V298.67H128c-5.777 0-10.775-2.116-14.999-6.337-4.222-4.215-6.333-9.222-6.333-14.999v-42.67c0-5.777 2.112-10.777 6.333-15 4.223-4.223 9.221-6.335 14.999-6.335h85.337v-85.333c0-5.778 2.112-10.775 6.335-14.999 4.222-4.222 9.222-6.333 14.999-6.333h42.67c5.777 0 10.78 2.112 14.999 6.333 4.22 4.223 6.338 9.221 6.338 14.999v85.333h85.327c5.777 0 10.779 2.112 15 6.335 4.223 4.221 6.337 9.221 6.337 15v42.67z"/><path d="M405.342 277.334c0 5.776-2.114 10.783-6.337 14.999-4.227 4.22-9.226 6.337-15 6.337h-85.336v85.328c0 5.776-2.116 10.778-6.337 15.007-4.219 4.219-9.22 6.33-14.999 6.33h-42.665c-5.777 0-10.777-2.111-14.999-6.33-4.224-4.228-6.336-9.229-6.336-15.007V298.67H128c-5.777 0-10.775-2.116-14.999-6.337-4.222-4.215-6.333-9.222-6.333-14.999v-42.67c0-5.777 2.112-10.777 6.333-15 4.223-4.223 9.221-6.335 14.999-6.335h85.337v-85.333c0-5.778 2.112-10.775 6.335-14.999 4.222-4.222 9.222-6.333 14.999-6.333h42.67c5.777 0 10.78 2.112 14.999 6.333 4.22 4.223 6.338 9.221 6.338 14.999v85.333h85.327c5.777 0 10.779 2.112 15 6.335 4.223 4.221 6.337 9.221 6.337 15v42.67z"/></symbol><symbol viewBox="0 0 846.66 846.66" id="princ1" xmlns="http://www.w3.org/2000/svg"><defs><style>.ifil1{fill:#abb8c8}</style></defs><g id="iСлой_x0020_1"><g id="i_2401641779200"><path d="M325.09 449.79h167.02v24.8H325.09v-24.8zM424.94 0h1.16c18.98.21 38.97 11.83 39.55 38.03 10.17 0 12.67-4.63 29.14 2.29 31.99 13.43 22.13 54.07 22.13 96.93l18.19-1.65c17.3 0 34.72 17.42 34.72 34.72v71.11c0 41.59-25.29 87.89-51.64 113.72-25.63 25.14-22.77 8.67-22.77 68.18 36.08.8 12.65 45.34 25.94 58.39 4.59 4.5 10.44 9.21 10.44 17.68 0 25.16 4.85 47.95-13.23 47.95-23.44 0-2.27-46.3-16.54-46.3H310.21v320.8h196.78V588.69c0-7.29 12.59-13.97 21.11-6.22 2.45 2.22 3.7 5.24 3.7 9.53v241.43c0 6.04-4.56 13.23-9.92 13.23H295.33c-3.98 0-9.92-5.94-9.92-9.92V492.78c0-9.41 7.01-13.25 13.23-16.53 0-20.08-5.29-52.29 23.15-52.92v-49.61c0-10.15-17.55-23.84-29.99-60.96-16.33-48.74-11.35-140.46-11.35-197.01 0-32.54 33.28-47.45 52.91-38.03 0-19.2-1.02-31.93 7.28-43.98 18.06-26.2 44.93-14.06 52.25-13.9C396.24 7.31 410.16.2 424.94 0zM305.25 195.13l1.71-54.52c.53-17.69-5.13-39.74 13.17-39.74 18.9 0 13.23 22.11 13.23 51.26 0 10.5-.01 20.99-.07 31.49-.05 9.05.99 21.43 13.3 21.43 16.53 0 13.23-16.98 13.23-33.07V79.37c0-30.71-2.01-36.38 16.54-36.38 5.69 0 9.39 5.85 9.97 11.53 1.57 15.29-1.47 129.38.28 138.62 1.07 5.63 5.26 11.91 12.9 11.91 17.46 0 13.23-20.57 13.23-38.03l-.11-127.44c.28-5.48.84-7.12 3.39-9.84 1.41-1.49 5.93-4.94 8.29-4.94 19.14 0 14.89 18.05 14.89 36.38l-.02 129c.63 7.81 4.78 14.87 13.24 14.87 15.06 0 13.27-13.22 13.24-28.11l-.01-84.34c-.02-15.31-2.34-29.76 13.23-29.76 9.86 0 13.23 6.67 13.23 16.53v157.1c0 7.69-24.69 15.52-43.45 34.26-23.63 23.61-4.76 33.13 4.08 30.66 7.24-2.02 13.15-14.42 34.72-28.24 31.79-20.37 29.46-14.08 29.46-63.14 0-18.03-4.63-49.61 13.23-49.61 8.17 0 14.88 6.71 14.88 14.88 0 53.13 4.16 95.28-26.21 139.16-22.58 32.63-48.21 38.61-48.21 65.89v43H348.25c0-55.95 5.59-52.38-16.89-85.64-24.62-36.42-26.11-95.52-26.11-142.56z"/><path class="ifil1" d="M614.48 593.65h171.98v228.2H614.48v-228.2zm231.51-294.34v51.79c-1.02 28.52-5.54 55.56-22.46 81.19-8.71 13.18-22 30.33-34.5 39.91-12.87 9.86-9.19 20.09-9.19 45.39 0 9.11 20.05.97 19.91 33.01-.02 4.35-.28 9.14-.2 13.43.37 18.95 11.71 8.16 11.71 27.97v243.08c0 7.72-3.85 11.58-11.57 11.58H601.25c-7.72 0-11.57-3.86-11.57-11.58V583.73c0-8.98 5.78-11.82 11.57-14.88 0-28.46-2.95-42.26 21.5-47.96 0-14.03 2.79-39.89-3.93-50.64-7.65-12.26-13.41-16.55-19.86-34.71-19.64-55.32-14.24-119.01-14.24-180.88 0-12.33 2.34-22.75 8.61-29.42 14.82-15.74 20.2-13.58 39.34-13.58 0-19.63-1.96-28.69 11.11-41.81 17.55-17.63 33.79-8.46 41.81-7.79 4.61-17.26 55.31-37.07 67.8 16.53 23.09-5.38 39.77 7 44.75 26.35 3.57 13.86 1.55 43.8 1.55 61.29 14.73-7.06 46.3 5.08 46.3 33.08zM627.71 547.35h145.52v19.85H627.71v-19.85zm125.68-52.91v26.45H649.21c0-21.07 2.4-47.21-8.32-64.44-7.04-11.3-7.82-7.13-16.49-26.51-18.82-42.08-13.23-130.45-13.23-181.9 0-10.53 9.66-12.74 14.98-10.21 5.5 2.61 6.51 5.62 6.64 15.05l-.12 36.51c0 22.63-3.7 39.68 13.23 39.68 13.3 0 13.35-11.27 13.25-24.78l-.02-114.12c4.94-3.31 3.35-4.96 9.92-4.96 13.76 0 11.61 16.13 11.58 29.76v82.68c-.01 21.4-3.9 31.42 14.88 31.42 5.69 0 9.39-5.85 9.97-11.52l-.05-110.85c0-25.59-4.29-36.38 13.23-36.38 3.98 0 4.86 2.68 8.27 4.96l.1 142.12c1.71 12.82 10.36 11.67 16.43 11.67 21.33 0 2.98-87.11 11.58-124.02 13.93-3.24 10.23-2.02 18.19 3.31v152.13c-10.95 2.92-47.96 29.58-47.96 39.69 0 8.47 2.02 18.21 14.24 15.88 7.31-1.39 9.63-7.57 14.23-12.22 17.42-17.64 34.67-17.63 42.39-33.68 5.82-12.11 3.56-56.89 3.56-74.16 6.65-4.45 2.01-4.96 13.23-4.96 11.88 0 8.27 31.89 8.27 46.3 0 49.96-16.06 90.73-51.29 117.38-10.21 7.72-16.51 21.79-16.51 39.72zM73.74 641.61h145.52v19.84H73.74v-19.84zm124.02-57.88v31.42H93.59c0-76.43-9.27-49.5-42.31-93.29-28.53-37.79-25.49-78.12-25.49-124.99 0-7.08 5.09-13.23 11.57-13.23 22.03 0 .45 59.4 14.88 82.69 8.19 13.21 23.51 14.12 40.95 31.81 7.72 7.84 7.76 11.18 16.93 11.18 15.04 0 19.28-17.43-9.19-38.77-12.61-9.46-27.19-15.06-27.19-20.76 0-25.98-2.31-133.45 1.66-150.48 7.23-3.47 9.3-3.47 16.53 0 3.83 16.43 1.69 77.97 1.59 102.58-.04 12.26 1.3 21.44 13.29 21.44 15.58 0 13.25-14.45 13.23-29.77-.03-28.22-2.25-110.55 1.66-127.33 21.06-10.1 19.93 9.8 19.85 21.49l-.07 124.09c1.45 14.45 22.22 16.11 24.76 1.49.69-3.99.11-15.03.11-19.74v-81.02c-.01-31.55-.97-36.27 19.84-31.42 3.78 16.22 1.81 89.77 1.64 115.76-.09 13.8-.31 26.45 13.24 26.45 18.38 0 13.23-25.74 13.23-44.65 0-21.26-4.22-47.95 9.92-47.95 14.23 0 11.62 12.7 11.58 26.45l-.95 109.85c-3.59 24.87-2.79 36.47-14.46 61.61-10.07 21.71-22.63 21.11-22.63 55.09zM93.59 272.85c-11.76-5.64-26.54 1.62-33.16 6.53-18.36 13.59-13.15 50.96-13.15 79.46H34.05c-17.11 0-33.07 15.95-33.07 33.07 0 56.39-5.53 98.27 29.99 145.3 38.61 51.13 36.16 13.59 36.16 77.94-24.16 5.63-19.85 23.06-19.85 51.26-18.17 4.85-13.23 48.28-13.23 71.11 0 25.43 26.46 22.2 26.46 4.96v-54.57h171.98v133.94H60.51c0-15.46 3.35-33.07-13.23-33.07-16.71 0-13.23 23.05-13.23 39.69 0 9.84 3.19 18.19 13.23 18.19h200.09c3.99 0 9.93-5.94 9.93-9.92V677.99c0-8.98-5.79-11.82-11.58-14.88 0-18.13 4.46-45.8-21.5-47.96 0-16.11-3.01-40.26 3.57-51 8.63-14.06 9.24-8.94 20.07-34.5 18.81-44.41 14.4-127.29 14.4-180.73 0-22-7.97-36.7-27.1-42.4-12.42-3.71-9-.6-20.86-.6v-14.88c0-21.93-14.77-38.04-38.03-38.04-7.12 0-8.97 1.93-14.89 3.31-6.44-24.13-63.95-29.7-67.79 16.54z"/></g></g></symbol><symbol viewBox="0 0 846.66 846.66" id="princ2" xmlns="http://www.w3.org/2000/svg"><defs><style>.jfil0,.jfil1{fill:#a6151d;fill-rule:nonzero}.jfil1{fill:#abb8c8}</style></defs><g id="jСлой_x0020_1"><g id="j_2401651907632"><path class="jfil0" d="M723.97 99.86c18.17 0 34.68 7.4 46.63 19.35 9.28 9.25 15.81 21.27 18.27 34.7h45.84c6.6 0 11.96 5.35 11.96 11.95s-5.36 11.95-11.96 11.95h-45.84c-2.47 13.39-8.99 25.38-18.24 34.65-8.49 8.46-19.19 14.63-31.12 17.53l75.38 250.15h10.17c5.98 0 10.93 4.38 11.82 10.11.87 3.93 1.56 8 2.02 12.1.49 4.39.76 8.78.76 13.08 0 31.92-12.97 60.85-33.88 81.77-20.92 20.98-49.86 33.94-81.81 33.94-31.96 0-60.89-12.96-81.82-33.88l-.69-.76c-20.5-20.87-33.19-49.51-33.19-81.07 0-4.34.26-8.73.76-13.12l.04-.32c.48-4.26 1.22-8.47 2.16-12.55 1.26-5.52 6.19-9.27 11.63-9.27h10.15L708.4 230c-11.98-2.9-22.69-9.07-31.11-17.48l-.71-.79c-8.87-9.16-15.13-20.88-17.53-33.92h-74.07c-6.6 0-11.96-5.35-11.96-11.95s5.36-11.95 11.96-11.95h74.07a65.872 65.872 0 0118.24-34.72c11.94-11.94 28.46-19.33 46.68-19.33zm42.05 67.42l-.08-1.42.08-1.42c-.37-11.05-5-21.04-12.31-28.37-7.56-7.6-18.1-12.3-29.74-12.3a41.97 41.97 0 00-29.76 12.33c-7.48 7.48-12.17 17.79-12.34 29.15v.07l.02.54-.02.53v.08c.17 11.1 4.61 21.18 11.71 28.55l.63.59c7.23 7.23 17.13 11.87 28.05 12.3l.09-.01.13-.02.17-.02h.03l.22-.02.04-.01.17-.01h.12l.1-.02h.2l.22-.01h.42l.22.01h.2l.11.02h.11l.19.01.01.01.2.02.08.01.14.01.16.02.04.01h.03c10.96-.45 20.86-5.04 28.05-12.25 7.32-7.3 11.94-17.29 12.31-28.38zM657.94 480.17l132.01-.03-66-219.04-66.01 219.07zm157.24 24.79l-.1-.91H632.86l-.11.97c-.38 3.3-.57 6.78-.57 10.41 0 25.04 10.03 47.77 26.24 64.32l.65.59c16.6 16.61 39.55 26.89 64.9 26.89 25.34 0 48.3-10.28 64.9-26.89 16.6-16.57 26.88-39.55 26.88-64.91 0-3.66-.2-7.17-.57-10.47zM119.52 99.86c18.22 0 34.74 7.39 46.68 19.33a65.872 65.872 0 0118.24 34.72h92.71c6.6 0 11.95 5.35 11.95 11.95s-5.35 11.95-11.95 11.95h-92.71c-2.47 13.4-9 25.41-18.27 34.68a65.673 65.673 0 01-31.09 17.5l75.38 250.15h10.17c5.98 0 10.93 4.39 11.82 10.12.87 3.92 1.56 7.97 2.01 12.05.5 4.39.76 8.78.76 13.12 0 31.92-12.97 60.85-33.88 81.77-20.93 20.98-49.86 33.94-81.82 33.94-31.95 0-60.89-12.96-81.81-33.88l-.69-.76c-20.51-20.87-33.19-49.51-33.19-81.07 0-4.34.26-8.73.76-13.12l.04-.32c.47-4.26 1.22-8.47 2.15-12.55 1.26-5.52 6.2-9.27 11.63-9.27h10.17L103.97 230c-11.97-2.9-22.7-9.07-31.12-17.48l-.72-.79c-8.86-9.16-15.12-20.88-17.52-33.92H11.95c-6.6 0-11.96-5.35-11.96-11.95s5.36-11.95 11.96-11.95h42.66c2.45-13.43 8.97-25.45 18.24-34.72 11.94-11.94 28.46-19.33 46.67-19.33zm42.07 67.53l-.1-1.53.1-1.53c-.4-10.99-5.03-20.95-12.31-28.23a41.97 41.97 0 00-29.76-12.33c-11.6 0-22.14 4.71-29.76 12.33-7.48 7.48-12.17 17.79-12.33 29.15v.07l.01.54-.01.53v.08c.16 11.1 4.61 21.18 11.71 28.55l.62.59a42.046 42.046 0 0028.07 12.3l.09-.01.13-.02.17-.02h.03l.22-.02.04-.01.17-.01h.12l.1-.02h.2l.22-.01h.42l.22.01h.2l.11.02h.11l.19.01.01.01.2.02.08.01.14.01.16.02.04.01h.03c10.92-.45 20.8-5.05 28.05-12.3 7.29-7.23 11.91-17.2 12.31-28.22zM53.51 480.17l132.01-.03-66-219.04-66.01 219.07zM210.74 505l-.11-.95H28.41l-.11.97c-.37 3.3-.56 6.78-.56 10.41 0 25.04 10.02 47.77 26.23 64.32l.65.59c16.6 16.61 39.56 26.89 64.9 26.89 25.34 0 48.3-10.28 64.9-26.89 16.6-16.57 26.89-39.55 26.89-64.91 0-3.63-.19-7.11-.57-10.43z"/><path class="jfil1" d="M339.28 465.99c0 6.6-5.35 11.96-11.95 11.96s-11.95-5.36-11.95-11.96v-78.83l-50.2-106.94c-.76-1.62-1.13-3.34-1.11-5.04l-.06-129.23c0-6.6 5.36-11.95 11.96-11.95 6.6 0 11.95 5.35 11.95 11.95v126.67l49.73 105.96c1.03 1.78 1.63 3.83 1.63 6.02v81.39z"/><path class="jfil1" d="M326 454.04h186.15c7.71 0 14.72 3.16 19.76 8.2 5.04 5.04 8.2 12.05 8.2 19.76v326.92c0 7.72-3.16 14.72-8.2 19.76-5.04 5.04-12.05 8.2-19.76 8.2H326c-7.71 0-14.72-3.16-19.76-8.2-5.04-5.04-8.2-12.04-8.2-19.76V482c0-7.71 3.16-14.72 8.2-19.76 5.04-5.04 12.05-8.2 19.76-8.2zm186.15 23.91H326c-1.08 0-2.11.47-2.85 1.2-.73.73-1.2 1.76-1.2 2.85v326.92c0 1.09.47 2.12 1.2 2.85.74.73 1.77 1.21 2.85 1.21h186.15c1.08 0 2.11-.48 2.85-1.21.73-.73 1.2-1.76 1.2-2.85V482c0-1.09-.47-2.12-1.2-2.85-.74-.73-1.77-1.2-2.85-1.2z"/><path class="jfil1" d="M438.32 321.98c.17 6.57-5.02 12.06-11.59 12.23-6.57.18-12.06-5.01-12.24-11.58-.74-25.03 4.87-47.77 17.26-67.97 6.43-10.5 14.66-20.26 24.76-29.24h-21.67c-14.08 0-26.93-5.79-36.22-15.06-9.33-9.35-15.11-22.18-15.11-36.26 0-14.14 5.79-26.98 15.06-36.25l.81-.73c9.22-8.85 21.75-14.33 35.46-14.33h111.74c14.14 0 26.99 5.79 36.26 15.06s15.05 22.11 15.05 36.25v121.76c0 3.13-1.2 5.98-3.18 8.12l-67.95 84.21v77.94h-23.91v-82.11c0-3.13 1.21-5.98 3.19-8.12l67.95-84.21V174.1c0-7.51-3.11-14.38-8.07-19.34-4.96-4.96-11.83-8.06-19.34-8.06H434.84c-7.27 0-13.91 2.87-18.83 7.5l-.53.56c-4.96 4.96-8.06 11.83-8.06 19.34 0 7.53 3.09 14.4 8.04 19.38 4.97 4.94 11.84 8.03 19.38 8.03h59.29c4.17.03 8.22 2.23 10.4 6.12 3.23 5.74 1.18 13.02-4.56 16.24-21.96 12.34-37.81 26.81-47.87 43.21-9.91 16.15-14.38 34.53-13.78 54.9z"/><path class="jfil1" d="M395.47 161.9c6.6 0 11.95 5.35 11.95 11.95s-5.35 11.96-11.95 11.96h-91.6c-10.98 0-20.97-4.5-28.16-11.7-7.2-7.19-11.7-17.18-11.7-28.16v-96.3c0-10.99 4.5-20.98 11.7-28.17 7.19-7.2 17.18-11.7 28.16-11.7h201.38c10.98 0 20.97 4.5 28.16 11.7l.79.86c6.73 7.15 10.91 16.79 10.91 27.31v85.09c0 6.6-5.36 11.96-11.96 11.96-6.59 0-11.95-5.36-11.95-11.96V49.65c0-4.13-1.6-7.94-4.19-10.79l-.51-.47c-2.89-2.89-6.88-4.7-11.25-4.7H303.87c-4.36 0-8.36 1.81-11.25 4.7-2.88 2.89-4.7 6.9-4.7 11.26v96.3c0 4.36 1.82 8.36 4.7 11.25 2.89 2.89 6.89 4.7 11.25 4.7h91.6z"/></g></g></symbol><symbol viewBox="0 0 846.66 846.66" id="princ3" xmlns="http://www.w3.org/2000/svg"><defs><style>.kfil0,.kfil1{fill-rule:nonzero}.kfil1{fill:#a6151d}.kfil0{fill:#abb8c8}</style></defs><g id="kСлой_x0020_1"><g id="k_2401805240768"><path class="kfil0" d="M709.01 479.76c4.67-3.41 11.22-2.4 14.63 2.26 3.42 4.66 2.41 11.22-2.26 14.63l-55.81 41.06c-4.67 3.41-11.22 2.4-14.63-2.26-3.42-4.66-2.41-11.22 2.26-14.63l55.81-41.06z"/><path class="kfil1" d="M21.87 182.22l-.93 302.73 90.8.27c15.75-44.57 29.18-89.43 40.3-134.53 10.99-44.57 19.75-89.44 26.27-134.53-24.45-9.08-49.51-17.04-75.59-22.96-25.68-5.83-52.48-9.78-80.85-10.98zM-.01 495.37l1-324.09c.09-5.77 4.86-10.38 10.62-10.29 33.9.6 65.59 4.96 95.7 11.8 30.14 6.85 58.67 16.17 86.28 26.75 4.45 1.7 7.32 6.3 6.64 11.22-6.72 48.45-16.01 96.79-27.88 144.92-11.8 47.85-26.21 95.59-43.27 143.14a10.457 10.457 0 01-9.98 7.33l-108.65-.33c-5.77 0-10.46-4.68-10.46-10.45z"/><path class="kfil1" d="M125.11 466.23c-4.37-3.77-4.84-10.39-1.07-14.75 3.77-4.37 10.38-4.84 14.75-1.07 23.34 20.17 46.53 41.26 69.7 62.3 47.56 43.22 95.17 86.48 136.67 115.76 47.84 33.76 86.82 48.96 105.7 22.19 3.32-4.73 9.86-5.87 14.59-2.55 4.72 3.32 5.86 9.86 2.54 14.58-28.14 39.88-76.94 23.78-134.87-17.09-42.67-30.12-90.72-73.78-138.74-117.41-23.59-21.43-47.21-42.9-69.27-61.96z"/><path class="kfil1" d="M359.01 571.35c-4.1-4.07-4.12-10.71-.05-14.8s10.7-4.12 14.8-.05l95.74 95.42c6.28 3.78 12.69 4.8 18.61 3.86 4.8-.77 9.44-2.8 13.57-5.7 4.23-2.99 7.93-6.87 10.69-11.14 4.08-6.34 6.16-13.48 5.15-19.86-.9-5.7 2.98-11.06 8.68-11.97 5.7-.9 11.06 2.99 11.97 8.68 1.85 11.7-1.47 24.03-8.17 34.45-4.21 6.53-9.84 12.43-16.3 16.96-6.64 4.63-14.24 7.95-22.31 9.23-11.04 1.76-22.82-.17-34.07-7.43l-1.72-1.4-96.59-96.25z"/><path class="kfil1" d="M429.78 534.49c-4.1-4.07-4.12-10.71-.05-14.8s10.7-4.12 14.79-.05l97.88 97.53c8.71 4.71 17.62 5.15 25.34 2.78 4.04-1.25 7.83-3.3 11.13-5.92 3.29-2.61 6.05-5.75 8.06-9.19 3.5-6.04 4.8-13.13 2.72-19.9-1.69-5.52 1.41-11.38 6.93-13.07 5.52-1.69 11.38 1.41 13.07 6.93 3.94 12.78 1.69 25.74-4.64 36.59a54.916 54.916 0 01-13.11 15.03 55.032 55.032 0 01-18.03 9.53c-13.26 4.09-28.51 3.24-43.08-5.27l-2.09-1.63-98.92-98.56z"/><path class="kfil1" d="M484.47 481.81c-4.1-4.07-4.12-10.71-.05-14.8s10.7-4.11 14.79-.05l111.2 110.87c9.33 3.66 17.59 3.26 24.33.4 3.98-1.69 7.57-4.29 10.58-7.42 3.05-3.16 5.52-6.92 7.24-10.83 2.99-6.8 3.73-13.9 1.52-19.12l-.14-.31c-16.77-38.14-215.7-195.18-216.25-195.62-4.52-3.59-5.27-10.19-1.68-14.71 3.59-4.52 10.19-5.27 14.71-1.68.58.46 201.07 158.57 222.11 203.07l.51 1.04c4.55 10.72 3.61 23.91-1.6 35.77a58.683 58.683 0 01-11.34 16.9c-4.86 5.06-10.78 9.31-17.55 12.18-12.1 5.13-26.66 5.79-42.56-1.2-1.14-.51-2.21-1.24-3.15-2.16L484.47 481.81z"/><path class="kfil0" d="M845.67 205.63l.99 323.82c0 5.77-4.68 10.46-10.45 10.46l-105.95.27c-4.69 0-8.65-3.09-9.98-7.34-18.05-50.3-37.44-102.08-56.62-153.32-17.02-45.49-33.91-90.59-48.88-131.93-1.94-5.37.78-11.32 6.1-13.35 27.81-10.65 64.58-20.15 102.76-27.13 38.05-6.96 77.7-11.44 111.4-12.05 5.77-.08 10.54 4.52 10.63 10.29v.28zm-19.95 313.39l-.93-302.72c-30.1 1.22-64.3 5.34-97.39 11.39-32.58 5.95-64.06 13.8-89.38 22.6 14.83 40.72 29.97 81.18 45.22 121.92 18.35 49.06 36.92 98.63 54.36 147.04l88.12-.23z"/><path class="kfil1" d="M353.49 237.23c5.77.01 10.43 4.72 10.42 10.49-.02 5.77-4.73 10.43-10.49 10.42l-169.27-1.18c-5.77-.01-10.43-4.72-10.42-10.49.01-5.77 4.72-10.43 10.49-10.42l169.27 1.18z"/><path class="kfil0" d="M643.35 274.71c5.34 2.19 7.88 8.3 5.69 13.64-2.18 5.34-8.3 7.89-13.64 5.7l-157.52-65.11c-18.06-5.26-35.21-6.71-51.51-4.7-16.27 2.01-31.76 7.48-46.5 16.05-22.05 14.82-46.63 40.35-65.32 66.07-16.6 22.81-28.35 45.17-29.04 59.13 3.13 6.03 6.89 10.8 11.12 14.28 5.5 4.52 11.98 7 19.08 7.38 7.58.42 16.02-1.47 24.9-5.68 13.51-6.4 27.83-18.04 41.71-34.92 2.08-2.54 5.11-3.84 8.16-3.82 7.79.07 15.72-1.24 23.7-3.75 8.23-2.58 16.51-6.43 24.74-11.26 4.97-2.92 11.39-1.24 14.3 3.73 2.91 4.98 1.24 11.39-3.74 14.3-9.68 5.69-19.39 10.21-29.06 13.24-8.28 2.6-16.66 4.17-25.09 4.55-15 17.41-30.67 29.7-45.78 36.86-12.05 5.72-23.91 8.28-34.98 7.66-11.56-.63-22.16-4.69-31.21-12.14-7.09-5.82-13.14-13.7-17.79-23.51-.59-1.25-.94-2.65-.99-4.11-.66-18.68 13.09-46.86 33.01-74.24 20.02-27.55 46.68-55.09 70.88-71.29l.54-.34c17.36-10.16 35.63-16.64 54.82-19 19.16-2.37 39.29-.65 60.39 5.56l159.13 65.72z"/></g></g></symbol><symbol viewBox="0 0 846.66 846.66" id="princ4" xmlns="http://www.w3.org/2000/svg"><defs><style>.lfil1{fill:#a6151d}</style></defs><g id="lСлой_x0020_1"><g id="l_2401806748800"><path d="M178.63 641.62c28.05 37.47 62.5 71.39 103.81 101.32 40.28 29.18 87.12 54.64 140.89 75.97 53.79-21.35 100.61-46.79 140.9-75.97 41.29-29.93 75.75-63.83 103.8-101.32 28.35-37.89 50.38-79.67 66.62-124.92 16.18-45.11 26.65-93.82 31.9-145.72V80.46h-92.76c-4.03 0-7.65-1.78-10.12-4.6l-49.04-49.03h-382.6l-49.72 49.7a13.34 13.34 0 01-9.44 3.89l-92.76.04v290.52c5.25 51.9 15.73 100.61 31.9 145.72 16.24 45.25 38.27 87.03 66.62 124.92zm88.09 123.01c-43.45-31.47-79.76-67.28-109.48-106.96-29.96-40.07-53.24-84.18-70.38-131.95-16.95-47.27-27.9-98.08-33.37-152.06l-.22-2.46V67.04c0-7.4 6.02-13.41 13.42-13.41h100.68L216.41 4.6c2.46-2.82 6.09-4.61 10.11-4.61h393.62c3.42.05 6.83 1.35 9.43 3.93l49.72 49.71h100.68c7.4 0 13.42 6.01 13.42 13.41l-.11 305.48c-5.42 54.4-16.41 105.6-33.48 153.2-17.14 47.77-40.42 91.88-70.38 131.95-29.7 39.68-66.03 75.49-109.48 106.96-43.27 31.34-93.69 58.53-151.78 81.13-3 1.16-6.42 1.25-9.66 0-58.07-22.6-108.51-49.79-151.78-81.13z"/><path class="lfil1" d="M258.99 305.26v174.47c0 58.12 42.55 112.71 93.06 138.15 42.35 21.33 98.99 22.01 141.43.57 36.3-18.35 59.76-41.14 78.13-77.58 8.77-17.43 16.06-41.43 16.06-61.14V305.26h-50.63v-98.97c0-24.61-15.88-55.34-32.89-72.37-17.03-17.03-47.78-32.89-72.38-32.89-36.27 0-63.12 6.81-89.23 32.91-17.14 17.14-32.92 47.58-32.92 72.35v98.97h-50.63zm75.52-85.47c0-25.5 7.3-45.96 23.79-65.28 5.78-6.77 18.58-15.48 26.64-19.46 61.02-30.09 127.22 16.73 127.22 84.74v85.47H334.51v-85.47zm-50.65 243.05V330.13H562.8v132.71c0 38.36-12.03 75.86-39.66 103.26-92.24 91.48-239.28 26.76-239.28-103.26z"/><rect class="lfil1" x="399.91" y="406.1" width="46.84" height="126.98" rx="13.65" ry="13.65"/></g></g></symbol><symbol viewBox="0 0 135.46 135.46" id="search" xmlns="http://www.w3.org/2000/svg"><path d="M59.65-.01C26.76-.01-.01 26.76-.01 59.65c0 32.9 26.77 59.66 59.66 59.66 14.47 0 27.75-5.18 38.09-13.78l28.32 28.32a5.498 5.498 0 003.9 1.62c1.41 0 2.82-.54 3.89-1.62a5.51 5.51 0 000-7.79l-28.32-28.32c8.6-10.34 13.78-23.62 13.78-38.09 0-32.89-26.76-59.66-59.66-59.66zm0 108.31c-26.82 0-48.64-21.82-48.64-48.65 0-26.82 21.82-48.64 48.64-48.64 26.83 0 48.65 21.82 48.65 48.64 0 26.83-21.82 48.65-48.65 48.65z"/></symbol><symbol viewBox="0 0 512 512" id="x-button" xmlns="http://www.w3.org/2000/svg"><circle cx="256" cy="256" r="256"/><path d="M510.28 285.304L367.912 142.936 150.248 368.608l140.928 140.928c115.176-15.84 205.88-108.248 219.104-224.232z"/><path d="M354.376 371.536a19.954 19.954 0 01-14.144-5.856L146.408 171.848c-7.816-7.816-7.816-20.472 0-28.28s20.472-7.816 28.28 0L368.52 337.4c7.816 7.816 7.816 20.472 0 28.28a19.954 19.954 0 01-14.144 5.856z"/><path d="M160.544 371.536a19.954 19.954 0 01-14.144-5.856c-7.816-7.816-7.816-20.472 0-28.28l193.832-193.832c7.816-7.816 20.472-7.816 28.28 0s7.816 20.472 0 28.28L174.688 365.68a19.94 19.94 0 01-14.144 5.856z"/></symbol></svg>