<?xml version="1.0" encoding="utf-8"?>
<!-- Generator: Adobe Illustrator 15.1.0, SVG Export Plug-In . SVG Version: 6.00 Build 0)  -->
<!DOCTYPE svg PUBLIC "-//W3C//DTD SVG 1.1//EN" "http://www.w3.org/Graphics/SVG/1.1/DTD/svg11.dtd">
<svg version="1.1" id="Capa_1" xmlns="http://www.w3.org/2000/svg" xmlns:xlink="http://www.w3.org/1999/xlink" x="0px" y="0px"
	 width="20px" height="20px" viewBox="287.64 410.945 20 20" enable-background="new 287.64 410.945 20 20" xml:space="preserve">
<g>
	<g>
		<path fill="#9b0f30" d="M306.037,424.073c-1.225,0-2.427-0.191-3.566-0.567c-0.558-0.19-1.244-0.017-1.585,0.334l-2.249,1.697
			c-2.608-1.392-4.214-2.998-5.587-5.586l1.647-2.19c0.428-0.428,0.582-1.052,0.398-1.638c-0.378-1.145-0.57-2.347-0.57-3.572
			c0-0.885-0.72-1.605-1.605-1.605h-3.673c-0.885,0-1.604,0.72-1.604,1.605c0,10.144,8.251,18.395,18.395,18.395
			c0.885,0,1.604-0.72,1.604-1.604v-3.662C307.641,424.793,306.921,424.073,306.037,424.073z"/>
	</g>
</g>
</svg>
