<?xml version="1.0" encoding="UTF-8"?>
<!DOCTYPE svg PUBLIC "-//W3C//DTD SVG 1.1//EN" "http://www.w3.org/Graphics/SVG/1.1/DTD/svg11.dtd">
<!-- Creator: CorelDRAW 2019 (64-Bit) -->
<svg xmlns="http://www.w3.org/2000/svg" xml:space="preserve" width="8.4666mm" height="8.4666mm" version="1.1" style="shape-rendering:geometricPrecision; text-rendering:geometricPrecision; image-rendering:optimizeQuality; fill-rule:evenodd; clip-rule:evenodd"
viewBox="0 0 846.66 846.66"
 xmlns:xlink="http://www.w3.org/1999/xlink">
 <defs>
  <style type="text/css">
   <![CDATA[
    .fil0 {fill:#A6151D}
    .fil1 {fill:#ABB8C8}
   ]]>
  </style>
 </defs>
 <g id="Слой_x0020_1">
  <metadata id="CorelCorpID_0Corel-Layer"/>
  <g id="_2401641779200">
   <path class="fil0" d="M325.09 449.79l167.02 0 0 24.8 -167.02 0 0 -24.8zm99.85 -449.79l1.16 0c18.98,0.21 38.97,11.83 39.55,38.03 10.17,0 12.67,-4.63 29.14,2.29 31.99,13.43 22.13,54.07 22.13,96.93l18.19 -1.65c17.3,0 34.72,17.42 34.72,34.72l0 71.11c0,41.59 -25.29,87.89 -51.64,113.72 -25.63,25.14 -22.77,8.67 -22.77,68.18 36.08,0.8 12.65,45.34 25.94,58.39 4.59,4.5 10.44,9.21 10.44,17.68 0,25.16 4.85,47.95 -13.23,47.95 -23.44,0 -2.27,-46.3 -16.54,-46.3l-191.82 0 0 320.8 196.78 0 0 -233.16c0,-7.29 12.59,-13.97 21.11,-6.22 2.45,2.22 3.7,5.24 3.7,9.53l0 241.43c0,6.04 -4.56,13.23 -9.92,13.23l-226.55 0c-3.98,0 -9.92,-5.94 -9.92,-9.92l0 -343.96c0,-9.41 7.01,-13.25 13.23,-16.53 0,-20.08 -5.29,-52.29 23.15,-52.92l0 -49.61c0,-10.15 -17.55,-23.84 -29.99,-60.96 -16.33,-48.74 -11.35,-140.46 -11.35,-197.01 0,-32.54 33.28,-47.45 52.91,-38.03 0,-19.2 -1.02,-31.93 7.28,-43.98 18.06,-26.2 44.93,-14.06 52.25,-13.9 3.35,-12.53 17.27,-19.64 32.05,-19.84zm-119.69 195.13l1.71 -54.52c0.53,-17.69 -5.13,-39.74 13.17,-39.74 18.9,0 13.23,22.11 13.23,51.26 0,10.5 -0.01,20.99 -0.07,31.49 -0.05,9.05 0.99,21.43 13.3,21.43 16.53,0 13.23,-16.98 13.23,-33.07l0 -92.61c0,-30.71 -2.01,-36.38 16.54,-36.38 5.69,0 9.39,5.85 9.97,11.53 1.57,15.29 -1.47,129.38 0.28,138.62 1.07,5.63 5.26,11.91 12.9,11.91 17.46,0 13.23,-20.57 13.23,-38.03l-0.11 -127.44c0.28,-5.48 0.84,-7.12 3.39,-9.84 1.41,-1.49 5.93,-4.94 8.29,-4.94 19.14,0 14.89,18.05 14.89,36.38l-0.02 129c0.63,7.81 4.78,14.87 13.24,14.87 15.06,0 13.27,-13.22 13.24,-28.11l-0.01 -84.34c-0.02,-15.31 -2.34,-29.76 13.23,-29.76 9.86,0 13.23,6.67 13.23,16.53l0 157.1c0,7.69 -24.69,15.52 -43.45,34.26 -23.63,23.61 -4.76,33.13 4.08,30.66 7.24,-2.02 13.15,-14.42 34.72,-28.24 31.79,-20.37 29.46,-14.08 29.46,-63.14 0,-18.03 -4.63,-49.61 13.23,-49.61 8.17,0 14.88,6.71 14.88,14.88 0,53.13 4.16,95.28 -26.21,139.16 -22.58,32.63 -48.21,38.61 -48.21,65.89l0 43 -122.36 0c0,-55.95 5.59,-52.38 -16.89,-85.64 -24.62,-36.42 -26.11,-95.52 -26.11,-142.56z"/>
   <path class="fil1" d="M614.48 593.65l171.98 0 0 228.2 -171.98 0 0 -228.2zm231.51 -294.34l0 51.79c-1.02,28.52 -5.54,55.56 -22.46,81.19 -8.71,13.18 -22,30.33 -34.5,39.91 -12.87,9.86 -9.19,20.09 -9.19,45.39 0,9.11 20.05,0.97 19.91,33.01 -0.02,4.35 -0.28,9.14 -0.2,13.43 0.37,18.95 11.71,8.16 11.71,27.97l0 243.08c0,7.72 -3.85,11.58 -11.57,11.58l-198.44 0c-7.72,0 -11.57,-3.86 -11.57,-11.58l0 -251.35c0,-8.98 5.78,-11.82 11.57,-14.88 0,-28.46 -2.95,-42.26 21.5,-47.96 0,-14.03 2.79,-39.89 -3.93,-50.64 -7.65,-12.26 -13.41,-16.55 -19.86,-34.71 -19.64,-55.32 -14.24,-119.01 -14.24,-180.88 0,-12.33 2.34,-22.75 8.61,-29.42 14.82,-15.74 20.2,-13.58 39.34,-13.58 0,-19.63 -1.96,-28.69 11.11,-41.81 17.55,-17.63 33.79,-8.46 41.81,-7.79 4.61,-17.26 55.31,-37.07 67.8,16.53 23.09,-5.38 39.77,7 44.75,26.35 3.57,13.86 1.55,43.8 1.55,61.29 14.73,-7.06 46.3,5.08 46.3,33.08zm-218.28 248.04l145.52 0 0 19.85 -145.52 0 0 -19.85zm125.68 -52.91l0 26.45 -104.18 0c0,-21.07 2.4,-47.21 -8.32,-64.44 -7.04,-11.3 -7.82,-7.13 -16.49,-26.51 -18.82,-42.08 -13.23,-130.45 -13.23,-181.9 0,-10.53 9.66,-12.74 14.98,-10.21 5.5,2.61 6.51,5.62 6.64,15.05l-0.12 36.51c0,22.63 -3.7,39.68 13.23,39.68 13.3,0 13.35,-11.27 13.25,-24.78l-0.02 -114.12c4.94,-3.31 3.35,-4.96 9.92,-4.96 13.76,0 11.61,16.13 11.58,29.76l0 82.68c-0.01,21.4 -3.9,31.42 14.88,31.42 5.69,0 9.39,-5.85 9.97,-11.52l-0.05 -110.85c0,-25.59 -4.29,-36.38 13.23,-36.38 3.98,0 4.86,2.68 8.27,4.96l0.1 142.12c1.71,12.82 10.36,11.67 16.43,11.67 21.33,0 2.98,-87.11 11.58,-124.02 13.93,-3.24 10.23,-2.02 18.19,3.31l0 152.13c-10.95,2.92 -47.96,29.58 -47.96,39.69 0,8.47 2.02,18.21 14.24,15.88 7.31,-1.39 9.63,-7.57 14.23,-12.22 17.42,-17.64 34.67,-17.63 42.39,-33.68 5.82,-12.11 3.56,-56.89 3.56,-74.16 6.65,-4.45 2.01,-4.96 13.23,-4.96 11.88,0 8.27,31.89 8.27,46.3 0,49.96 -16.06,90.73 -51.29,117.38 -10.21,7.72 -16.51,21.79 -16.51,39.72z"/>
   <path class="fil1" d="M73.74 641.61l145.52 0 0 19.84 -145.52 0 0 -19.84zm124.02 -57.88l0 31.42 -104.17 0c0,-76.43 -9.27,-49.5 -42.31,-93.29 -28.53,-37.79 -25.49,-78.12 -25.49,-124.99 0,-7.08 5.09,-13.23 11.57,-13.23 22.03,0 0.45,59.4 14.88,82.69 8.19,13.21 23.51,14.12 40.95,31.81 7.72,7.84 7.76,11.18 16.93,11.18 15.04,0 19.28,-17.43 -9.19,-38.77 -12.61,-9.46 -27.19,-15.06 -27.19,-20.76 0,-25.98 -2.31,-133.45 1.66,-150.48 7.23,-3.47 9.3,-3.47 16.53,0 3.83,16.43 1.69,77.97 1.59,102.58 -0.04,12.26 1.3,21.44 13.29,21.44 15.58,0 13.25,-14.45 13.23,-29.77 -0.03,-28.22 -2.25,-110.55 1.66,-127.33 21.06,-10.1 19.93,9.8 19.85,21.49l-0.07 124.09c1.45,14.45 22.22,16.11 24.76,1.49 0.69,-3.99 0.11,-15.03 0.11,-19.74l0 -81.02c-0.01,-31.55 -0.97,-36.27 19.84,-31.42 3.78,16.22 1.81,89.77 1.64,115.76 -0.09,13.8 -0.31,26.45 13.24,26.45 18.38,0 13.23,-25.74 13.23,-44.65 0,-21.26 -4.22,-47.95 9.92,-47.95 14.23,0 11.62,12.7 11.58,26.45l-0.95 109.85c-3.59,24.87 -2.79,36.47 -14.46,61.61 -10.07,21.71 -22.63,21.11 -22.63,55.09zm-104.17 -310.88c-11.76,-5.64 -26.54,1.62 -33.16,6.53 -18.36,13.59 -13.15,50.96 -13.15,79.46l-13.23 0c-17.11,0 -33.07,15.95 -33.07,33.07 0,56.39 -5.53,98.27 29.99,145.3 38.61,51.13 36.16,13.59 36.16,77.94 -24.16,5.63 -19.85,23.06 -19.85,51.26 -18.17,4.85 -13.23,48.28 -13.23,71.11 0,25.43 26.46,22.2 26.46,4.96l0 -54.57 171.98 0 0 133.94 -171.98 0c0,-15.46 3.35,-33.07 -13.23,-33.07 -16.71,0 -13.23,23.05 -13.23,39.69 0,9.84 3.19,18.19 13.23,18.19l200.09 0c3.99,0 9.93,-5.94 9.93,-9.92l0 -158.75c0,-8.98 -5.79,-11.82 -11.58,-14.88 0,-18.13 4.46,-45.8 -21.5,-47.96 0,-16.11 -3.01,-40.26 3.57,-51 8.63,-14.06 9.24,-8.94 20.07,-34.5 18.81,-44.41 14.4,-127.29 14.4,-180.73 0,-22 -7.97,-36.7 -27.1,-42.4 -12.42,-3.71 -9,-0.6 -20.86,-0.6l0 -14.88c0,-21.93 -14.77,-38.04 -38.03,-38.04 -7.12,0 -8.97,1.93 -14.89,3.31 -6.44,-24.13 -63.95,-29.7 -67.79,16.54z"/>
  </g>
 </g>
</svg>
