<?xml version="1.0" encoding="UTF-8"?>
<!DOCTYPE svg PUBLIC "-//W3C//DTD SVG 1.1//EN" "http://www.w3.org/Graphics/SVG/1.1/DTD/svg11.dtd">
<!-- Creator: CorelDRAW 2019 (64-Bit) -->
<svg xmlns="http://www.w3.org/2000/svg" xml:space="preserve" width="8.4666mm" height="8.4666mm" version="1.1" style="shape-rendering:geometricPrecision; text-rendering:geometricPrecision; image-rendering:optimizeQuality; fill-rule:evenodd; clip-rule:evenodd"
viewBox="0 0 846.66 846.66"
 xmlns:xlink="http://www.w3.org/1999/xlink">
 <defs>
  <style type="text/css">
   <![CDATA[
    .fil1 {fill:#A6151D;fill-rule:nonzero}
    .fil0 {fill:#ABB8C8;fill-rule:nonzero}
   ]]>
  </style>
 </defs>
 <g id="Слой_x0020_1">
  <metadata id="CorelCorpID_0Corel-Layer"/>
  <g id="_2401805240768">
   <path class="fil0" d="M709.01 479.76c4.67,-3.41 11.22,-2.4 14.63,2.26 3.42,4.66 2.41,11.22 -2.26,14.63l-55.81 41.06c-4.67,3.41 -11.22,2.4 -14.63,-2.26 -3.42,-4.66 -2.41,-11.22 2.26,-14.63l55.81 -41.06z"/>
   <path class="fil1" d="M21.87 182.22l-0.93 302.73 90.8 0.27c15.75,-44.57 29.18,-89.43 40.3,-134.53 10.99,-44.57 19.75,-89.44 26.27,-134.53 -24.45,-9.08 -49.51,-17.04 -75.59,-22.96 -25.68,-5.83 -52.48,-9.78 -80.85,-10.98zm-21.88 313.15l1 -324.09c0.09,-5.77 4.86,-10.38 10.62,-10.29 33.9,0.6 65.59,4.96 95.7,11.8 30.14,6.85 58.67,16.17 86.28,26.75 4.45,1.7 7.32,6.3 6.64,11.22 -6.72,48.45 -16.01,96.79 -27.88,144.92 -11.8,47.85 -26.21,95.59 -43.27,143.14 -1.32,4.24 -5.29,7.33 -9.98,7.33l-108.65 -0.33c-5.77,0 -10.46,-4.68 -10.46,-10.45z"/>
   <path class="fil1" d="M125.11 466.23c-4.37,-3.77 -4.84,-10.39 -1.07,-14.75 3.77,-4.37 10.38,-4.84 14.75,-1.07 23.34,20.17 46.53,41.26 69.7,62.3 47.56,43.22 95.17,86.48 136.67,115.76 47.84,33.76 86.82,48.96 105.7,22.19 3.32,-4.73 9.86,-5.87 14.59,-2.55 4.72,3.32 5.86,9.86 2.54,14.58 -28.14,39.88 -76.94,23.78 -134.87,-17.09 -42.67,-30.12 -90.72,-73.78 -138.74,-117.41 -23.59,-21.43 -47.21,-42.9 -69.27,-61.96z"/>
   <path class="fil1" d="M359.01 571.35c-4.1,-4.07 -4.12,-10.71 -0.05,-14.8 4.07,-4.09 10.7,-4.12 14.8,-0.05l95.74 95.42c6.28,3.78 12.69,4.8 18.61,3.86 4.8,-0.77 9.44,-2.8 13.57,-5.7 4.23,-2.99 7.93,-6.87 10.69,-11.14 4.08,-6.34 6.16,-13.48 5.15,-19.86 -0.9,-5.7 2.98,-11.06 8.68,-11.97 5.7,-0.9 11.06,2.99 11.97,8.68 1.85,11.7 -1.47,24.03 -8.17,34.45 -4.21,6.53 -9.84,12.43 -16.3,16.96 -6.64,4.63 -14.24,7.95 -22.31,9.23 -11.04,1.76 -22.82,-0.17 -34.07,-7.43l-1.72 -1.4 -96.59 -96.25z"/>
   <path class="fil1" d="M429.78 534.49c-4.1,-4.07 -4.12,-10.71 -0.05,-14.8 4.07,-4.09 10.7,-4.12 14.79,-0.05l97.88 97.53c8.71,4.71 17.62,5.15 25.34,2.78 4.04,-1.25 7.83,-3.3 11.13,-5.92 3.29,-2.61 6.05,-5.75 8.06,-9.19 3.5,-6.04 4.8,-13.13 2.72,-19.9 -1.69,-5.52 1.41,-11.38 6.93,-13.07 5.52,-1.69 11.38,1.41 13.07,6.93 3.94,12.78 1.69,25.74 -4.64,36.59 -3.38,5.72 -7.86,10.87 -13.11,15.03 -5.26,4.19 -11.4,7.49 -18.03,9.53 -13.26,4.09 -28.51,3.24 -43.08,-5.27l-2.09 -1.63 -98.92 -98.56z"/>
   <path class="fil1" d="M484.47 481.81c-4.1,-4.07 -4.12,-10.71 -0.05,-14.8 4.07,-4.09 10.7,-4.11 14.79,-0.05l111.2 110.87c9.33,3.66 17.59,3.26 24.33,0.4 3.98,-1.69 7.57,-4.29 10.58,-7.42 3.05,-3.16 5.52,-6.92 7.24,-10.83 2.99,-6.8 3.73,-13.9 1.52,-19.12l-0.14 -0.31c-16.77,-38.14 -215.7,-195.18 -216.25,-195.62 -4.52,-3.59 -5.27,-10.19 -1.68,-14.71 3.59,-4.52 10.19,-5.27 14.71,-1.68 0.58,0.46 201.07,158.57 222.11,203.07l0.51 1.04c4.55,10.72 3.61,23.91 -1.6,35.77 -2.68,6.07 -6.53,11.91 -11.34,16.9 -4.86,5.06 -10.78,9.31 -17.55,12.18 -12.1,5.13 -26.66,5.79 -42.56,-1.2 -1.14,-0.51 -2.21,-1.24 -3.15,-2.16l-112.67 -112.33z"/>
   <path class="fil0" d="M845.67 205.63l0.99 323.82c0,5.77 -4.68,10.46 -10.45,10.46l-105.95 0.27c-4.69,0 -8.65,-3.09 -9.98,-7.34 -18.05,-50.3 -37.44,-102.08 -56.62,-153.32 -17.02,-45.49 -33.91,-90.59 -48.88,-131.93 -1.94,-5.37 0.78,-11.32 6.1,-13.35 27.81,-10.65 64.58,-20.15 102.76,-27.13 38.05,-6.96 77.7,-11.44 111.4,-12.05 5.77,-0.08 10.54,4.52 10.63,10.29l0 0.28zm-19.95 313.39l-0.93 -302.72c-30.1,1.22 -64.3,5.34 -97.39,11.39 -32.58,5.95 -64.06,13.8 -89.38,22.6 14.83,40.72 29.97,81.18 45.22,121.92 18.35,49.06 36.92,98.63 54.36,147.04l88.12 -0.23z"/>
   <path class="fil1" d="M353.49 237.23c5.77,0.01 10.43,4.72 10.42,10.49 -0.02,5.77 -4.73,10.43 -10.49,10.42l-169.27 -1.18c-5.77,-0.01 -10.43,-4.72 -10.42,-10.49 0.01,-5.77 4.72,-10.43 10.49,-10.42l169.27 1.18z"/>
   <path class="fil0" d="M643.35 274.71c5.34,2.19 7.88,8.3 5.69,13.64 -2.18,5.34 -8.3,7.89 -13.64,5.7l-157.52 -65.11c-18.06,-5.26 -35.21,-6.71 -51.51,-4.7 -16.27,2.01 -31.76,7.48 -46.5,16.05 -22.05,14.82 -46.63,40.35 -65.32,66.07 -16.6,22.81 -28.35,45.17 -29.04,59.13 3.13,6.03 6.89,10.8 11.12,14.28 5.5,4.52 11.98,7 19.08,7.38 7.58,0.42 16.02,-1.47 24.9,-5.68 13.51,-6.4 27.83,-18.04 41.71,-34.92 2.08,-2.54 5.11,-3.84 8.16,-3.82 7.79,0.07 15.72,-1.24 23.7,-3.75 8.23,-2.58 16.51,-6.43 24.74,-11.26 4.97,-2.92 11.39,-1.24 14.3,3.73 2.91,4.98 1.24,11.39 -3.74,14.3 -9.68,5.69 -19.39,10.21 -29.06,13.24 -8.28,2.6 -16.66,4.17 -25.09,4.55 -15,17.41 -30.67,29.7 -45.78,36.86 -12.05,5.72 -23.91,8.28 -34.98,7.66 -11.56,-0.63 -22.16,-4.69 -31.21,-12.14 -7.09,-5.82 -13.14,-13.7 -17.79,-23.51 -0.59,-1.25 -0.94,-2.65 -0.99,-4.11 -0.66,-18.68 13.09,-46.86 33.01,-74.24 20.02,-27.55 46.68,-55.09 70.88,-71.29l0.54 -0.34c17.36,-10.16 35.63,-16.64 54.82,-19 19.16,-2.37 39.29,-0.65 60.39,5.56l159.13 65.72z"/>
  </g>
 </g>
</svg>
