<?xml version="1.0" encoding="UTF-8"?>
<!DOCTYPE svg PUBLIC "-//W3C//DTD SVG 1.1//EN" "http://www.w3.org/Graphics/SVG/1.1/DTD/svg11.dtd">
<!-- Creator: CorelDRAW 2019 (64-Bit) -->
<svg xmlns="http://www.w3.org/2000/svg" xml:space="preserve" width="8.4666mm" height="8.4666mm" version="1.1" style="shape-rendering:geometricPrecision; text-rendering:geometricPrecision; image-rendering:optimizeQuality; fill-rule:evenodd; clip-rule:evenodd"
viewBox="0 0 846.66 846.66"
 xmlns:xlink="http://www.w3.org/1999/xlink">
 <defs>
  <style type="text/css">
   <![CDATA[
    .fil1 {fill:#A6151D}
    .fil0 {fill:#ABB8C8;fill-rule:nonzero}
   ]]>
  </style>
 </defs>
 <g id="Слой_x0020_1">
  <metadata id="CorelCorpID_0Corel-Layer"/>
  <g id="_2401806748800">
   <path class="fil0" d="M178.63 641.62c28.05,37.47 62.5,71.39 103.81,101.32 40.28,29.18 87.12,54.64 140.89,75.97 53.79,-21.35 100.61,-46.79 140.9,-75.97 41.29,-29.93 75.75,-63.83 103.8,-101.32 28.35,-37.89 50.38,-79.67 66.62,-124.92 16.18,-45.11 26.65,-93.82 31.9,-145.72l0 -290.52 -92.76 0c-4.03,0 -7.65,-1.78 -10.12,-4.6l-49.04 -49.03 -382.6 0 -49.72 49.7c-2.6,2.59 -6.02,3.89 -9.44,3.89l-92.76 0.04 0 290.52c5.25,51.9 15.73,100.61 31.9,145.72 16.24,45.25 38.27,87.03 66.62,124.92zm88.09 123.01c-43.45,-31.47 -79.76,-67.28 -109.48,-106.96 -29.96,-40.07 -53.24,-84.18 -70.38,-131.95 -16.95,-47.27 -27.9,-98.08 -33.37,-152.06l-0.22 -2.46 0 -304.16c0,-7.4 6.02,-13.41 13.42,-13.41l100.68 0 49.04 -49.03c2.46,-2.82 6.09,-4.61 10.11,-4.61l393.62 0c3.42,0.05 6.83,1.35 9.43,3.93l49.72 49.71 100.68 0c7.4,0 13.42,6.01 13.42,13.41l-0.11 305.48c-5.42,54.4 -16.41,105.6 -33.48,153.2 -17.14,47.77 -40.42,91.88 -70.38,131.95 -29.7,39.68 -66.03,75.49 -109.48,106.96 -43.27,31.34 -93.69,58.53 -151.78,81.13 -3,1.16 -6.42,1.25 -9.66,0 -58.07,-22.6 -108.51,-49.79 -151.78,-81.13z"/>
   <path class="fil1" d="M258.99 305.26l0 174.47c0,58.12 42.55,112.71 93.06,138.15 42.35,21.33 98.99,22.01 141.43,0.57 36.3,-18.35 59.76,-41.14 78.13,-77.58 8.77,-17.43 16.06,-41.43 16.06,-61.14l0 -174.47 -50.63 0 0 -98.97c0,-24.61 -15.88,-55.34 -32.89,-72.37 -17.03,-17.03 -47.78,-32.89 -72.38,-32.89 -36.27,0 -63.12,6.81 -89.23,32.91 -17.14,17.14 -32.92,47.58 -32.92,72.35l0 98.97 -50.63 0zm75.52 -85.47c0,-25.5 7.3,-45.96 23.79,-65.28 5.78,-6.77 18.58,-15.48 26.64,-19.46 61.02,-30.09 127.22,16.73 127.22,84.74l0 85.47 -177.65 0 0 -85.47zm-50.65 243.05l0 -132.71 278.94 0 0 132.71c0,38.36 -12.03,75.86 -39.66,103.26 -92.24,91.48 -239.28,26.76 -239.28,-103.26z"/>
   <rect class="fil1" x="399.91" y="406.1" width="46.84" height="126.98" rx="13.65" ry="13.65"/>
  </g>
 </g>
</svg>
